<svg viewBox="0 0 680 163.056" xmlns="http://www.w3.org/2000/svg" xmlns:xlink="http://www.w3.org/1999/xlink" width="680.000000" height="163.056030" fill="none" customFrame="#000000">
	<path id="WIN BOX закрыт на ремонтные работы, но скоро здесь вновь будет много спорта!" d="M238.745 59.688C241.553 59.688 243.633 60.3813 244.985 61.768C246.337 63.1547 247.013 64.888 247.013 66.968C247.013 67.7307 246.944 68.4067 246.805 68.996L239.785 70.192C239.82 70.0187 239.837 69.8627 239.837 69.724C239.872 69.5507 239.889 69.3773 239.889 69.204C239.889 68.4067 239.716 67.748 239.369 67.228C239.022 66.708 238.537 66.448 237.913 66.448C237.428 66.448 237.029 66.552 236.717 66.76C236.405 66.9333 236.128 67.1587 235.885 67.436C235.677 67.7133 235.504 68.0253 235.365 68.372C235.261 68.684 235.192 68.9613 235.157 69.204L231.569 87.664C231.534 87.8027 231.517 88.0107 231.517 88.288C231.517 88.6693 231.621 89.016 231.829 89.328C232.072 89.6053 232.557 89.744 233.285 89.744C234.776 89.744 235.816 88.496 236.405 86L243.217 86.936C243.009 88.3573 242.645 89.6573 242.125 90.836C241.64 91.98 240.981 92.9853 240.149 93.852C239.317 94.684 238.294 95.3427 237.081 95.828C235.902 96.2787 234.498 96.504 232.869 96.504C230.096 96.504 227.998 95.8973 226.577 94.684C225.156 93.4707 224.445 91.72 224.445 89.432C224.445 88.7387 224.532 87.9067 224.705 86.936L228.137 69.204C228.414 67.7827 228.813 66.4827 229.333 65.304C229.853 64.1253 230.529 63.12 231.361 62.288C232.193 61.456 233.216 60.8147 234.429 60.364C235.642 59.9133 237.081 59.688 238.745 59.688ZM245.336 96.192L252.356 59.948L259.272 59.948L256.36 74.82L257.088 74.82C257.886 74.82 258.596 74.4213 259.22 73.624C259.879 72.792 260.503 71.6307 261.092 70.14L264.888 60.104L271.804 60.104L267.54 71.128C266.847 72.896 265.98 74.3 264.94 75.34C263.9 76.38 262.843 77.0907 261.768 77.472C262.982 77.9573 263.883 78.6853 264.472 79.656C265.096 80.592 265.408 81.944 265.408 83.712L265.408 96.192L258.804 96.192L258.908 85.844C258.943 84.4573 258.77 83.3133 258.388 82.412C258.042 81.5107 257.279 81.06 256.1 81.06L255.164 81.06L252.252 96.192L245.336 96.192ZM282.999 66.708C282.41 66.708 281.907 66.8813 281.491 67.228C281.075 67.5747 280.781 68.1467 280.607 68.944L277.175 86.728C277.141 86.9013 277.106 87.0573 277.071 87.196C277.071 87.3 277.071 87.4213 277.071 87.56C277.071 88.8427 277.678 89.484 278.891 89.484C279.481 89.484 279.983 89.328 280.399 89.016C280.815 88.6693 281.11 88.08 281.283 87.248L284.715 69.568C284.785 69.3947 284.819 69.2387 284.819 69.1C284.819 68.9267 284.819 68.7533 284.819 68.58C284.819 67.9213 284.646 67.4533 284.299 67.176C283.953 66.864 283.519 66.708 282.999 66.708ZM283.415 59.688C286.015 59.688 288.095 60.3467 289.655 61.664C291.215 62.9813 291.995 64.888 291.995 67.384C291.995 68.2853 291.891 69.2213 291.683 70.192L288.459 87.352C287.939 90.1947 286.899 92.4307 285.339 94.06C283.779 95.6893 281.474 96.504 278.423 96.504C275.685 96.504 273.587 95.7933 272.131 94.372C270.71 92.9507 269.999 91.0613 269.999 88.704C269.999 88.3227 270.017 87.924 270.051 87.508C270.121 87.092 270.19 86.676 270.259 86.26L273.587 68.788C273.899 67.228 274.298 65.8933 274.783 64.784C275.303 63.64 275.945 62.6867 276.707 61.924C277.505 61.1613 278.441 60.6067 279.515 60.26C280.625 59.8787 281.925 59.688 283.415 59.688ZM306.832 60C308.149 60 309.345 60.1387 310.42 60.416C311.494 60.6933 312.413 61.1613 313.176 61.82C313.938 62.444 314.528 63.3107 314.944 64.42C315.36 65.4947 315.568 66.8293 315.568 68.424C315.568 73.1387 314.441 76.744 312.188 79.24C309.934 81.7013 306.884 82.932 303.036 82.932L301.372 82.932L298.824 96.192L291.752 96.192L298.772 60L306.832 60ZM304.544 66.76L302.724 76.12L303.92 76.12C304.37 76.12 304.873 76.0507 305.428 75.912C305.982 75.7387 306.502 75.444 306.988 75.028C307.473 74.5773 307.872 73.9533 308.184 73.156C308.496 72.3587 308.652 71.3187 308.652 70.036C308.652 68.8227 308.374 67.9733 307.82 67.488C307.3 67.0027 306.572 66.76 305.636 66.76L304.544 66.76ZM328.398 66.708C327.809 66.708 327.306 66.8813 326.89 67.228C326.474 67.5747 326.179 68.1467 326.006 68.944L322.574 86.728C322.539 86.9013 322.505 87.0573 322.47 87.196C322.47 87.3 322.47 87.4213 322.47 87.56C322.47 88.8427 323.077 89.484 324.29 89.484C324.879 89.484 325.382 89.328 325.798 89.016C326.214 88.6693 326.509 88.08 326.682 87.248L330.114 69.568C330.183 69.3947 330.218 69.2387 330.218 69.1C330.218 68.9267 330.218 68.7533 330.218 68.58C330.218 67.9213 330.045 67.4533 329.698 67.176C329.351 66.864 328.918 66.708 328.398 66.708ZM328.814 59.688C331.414 59.688 333.494 60.3467 335.054 61.664C336.614 62.9813 337.394 64.888 337.394 67.384C337.394 68.2853 337.29 69.2213 337.082 70.192L333.858 87.352C333.338 90.1947 332.298 92.4307 330.738 94.06C329.178 95.6893 326.873 96.504 323.822 96.504C321.083 96.504 318.986 95.7933 317.53 94.372C316.109 92.9507 315.398 91.0613 315.398 88.704C315.398 88.3227 315.415 87.924 315.45 87.508C315.519 87.092 315.589 86.676 315.658 86.26L318.986 68.788C319.298 67.228 319.697 65.8933 320.182 64.784C320.702 63.64 321.343 62.6867 322.106 61.924C322.903 61.1613 323.839 60.6067 324.914 60.26C326.023 59.8787 327.323 59.688 328.814 59.688ZM361.998 59.688C364.633 59.688 366.643 60.3987 368.03 61.82C369.451 63.2067 370.162 65.0267 370.162 67.28C370.162 68.2853 370.093 69.2907 369.954 70.296C369.85 71.3013 369.607 72.2547 369.226 73.156C368.879 74.0573 368.394 74.8893 367.77 75.652C367.146 76.38 366.349 76.9693 365.378 77.42L365.378 77.524C366.071 77.9053 366.591 78.4947 366.938 79.292C367.285 80.0893 367.458 81.06 367.458 82.204C367.458 86.7453 366.418 90.264 364.338 92.76C362.258 95.256 359.381 96.504 355.706 96.504C353.106 96.504 351.13 95.8627 349.778 94.58C348.461 93.2627 347.802 91.512 347.802 89.328C347.802 88.7387 347.854 88.0973 347.958 87.404L355.238 86C355.203 86.2427 355.169 86.4853 355.134 86.728C355.134 86.936 355.134 87.1267 355.134 87.3C355.134 88.0973 355.273 88.6693 355.55 89.016C355.862 89.328 356.313 89.484 356.902 89.484C357.457 89.484 357.942 89.2933 358.358 88.912C358.774 88.496 359.103 87.976 359.346 87.352C359.623 86.6933 359.814 85.9653 359.918 85.168C360.057 84.3707 360.126 83.5733 360.126 82.776C360.126 81.8053 359.918 81.1813 359.502 80.904C359.086 80.592 358.531 80.436 357.838 80.436L356.382 80.436L357.526 74.508L359.606 74.508C360.611 74.508 361.409 74.0053 361.998 73C362.587 71.96 362.882 70.66 362.882 69.1C362.882 68.5453 362.761 68.008 362.518 67.488C362.275 66.968 361.807 66.708 361.114 66.708C360.351 66.708 359.693 67.02 359.138 67.644C358.618 68.268 358.237 69.1173 357.994 70.192L351.338 68.684C352.031 65.772 353.262 63.5533 355.03 62.028C356.833 60.468 359.155 59.688 361.998 59.688ZM372.629 96.192L371.277 103.056L365.609 103.056L368.053 90.108L370.341 89.536C370.965 89.12 371.485 88.6867 371.901 88.236C372.317 87.7507 372.663 87.2307 372.941 86.676C373.253 86.0867 373.513 85.4453 373.721 84.752C373.929 84.024 374.137 83.2093 374.345 82.308L379.441 60L396.549 60L390.777 89.432L393.481 89.432L390.881 103.056L385.161 103.056L386.513 96.192L372.629 96.192ZM380.637 81.788C380.29 83.348 379.874 84.8213 379.389 86.208C378.938 87.56 378.401 88.6347 377.777 89.432L384.017 89.432L388.489 66.76L384.069 66.76L380.637 81.788ZM396.412 96.192L403.432 60L420.02 60L418.72 66.76L409.204 66.76L407.696 74.352L416.016 74.352L414.664 81.268L406.344 81.268L404.836 89.432L414.352 89.432L413 96.192L396.412 96.192ZM432.425 59.688C435.233 59.688 437.313 60.3813 438.665 61.768C440.017 63.1547 440.693 64.888 440.693 66.968C440.693 67.7307 440.623 68.4067 440.485 68.996L433.465 70.192C433.499 70.0187 433.517 69.8627 433.517 69.724C433.551 69.5507 433.569 69.3773 433.569 69.204C433.569 68.4067 433.395 67.748 433.049 67.228C432.702 66.708 432.217 66.448 431.593 66.448C431.107 66.448 430.709 66.552 430.397 66.76C430.085 66.9333 429.807 67.1587 429.565 67.436C429.357 67.7133 429.183 68.0253 429.045 68.372C428.941 68.684 428.871 68.9613 428.837 69.204L425.249 87.664C425.214 87.8027 425.197 88.0107 425.197 88.288C425.197 88.6693 425.301 89.016 425.509 89.328C425.751 89.6053 426.237 89.744 426.965 89.744C428.455 89.744 429.495 88.496 430.085 86L436.897 86.936C436.689 88.3573 436.325 89.6573 435.805 90.836C435.319 91.98 434.661 92.9853 433.829 93.852C432.997 94.684 431.974 95.3427 430.761 95.828C429.582 96.2787 428.178 96.504 426.549 96.504C423.775 96.504 421.678 95.8973 420.257 94.684C418.835 93.4707 418.125 91.72 418.125 89.432C418.125 88.7387 418.211 87.9067 418.385 86.936L421.817 69.204C422.094 67.7827 422.493 66.4827 423.013 65.304C423.533 64.1253 424.209 63.12 425.041 62.288C425.873 61.456 426.895 60.8147 428.109 60.364C429.322 59.9133 430.761 59.688 432.425 59.688ZM439.068 96.192L446.088 60L453.16 60L450.56 73.26L451.392 73.26C452.883 73.26 454.183 73.468 455.292 73.884C456.436 74.2653 457.389 74.82 458.152 75.548C458.915 76.2413 459.487 77.0733 459.868 78.044C460.284 78.98 460.492 80.0027 460.492 81.112C460.492 83.4 460.197 85.48 459.608 87.352C459.019 89.224 458.187 90.8187 457.112 92.136C456.037 93.4187 454.755 94.424 453.264 95.152C451.773 95.8453 450.127 96.192 448.324 96.192L439.068 96.192ZM448.74 89.432C449.295 89.432 449.849 89.2933 450.404 89.016C450.993 88.704 451.496 88.288 451.912 87.768C452.363 87.2133 452.727 86.5373 453.004 85.74C453.281 84.908 453.42 83.972 453.42 82.932C453.42 81.684 453.108 80.904 452.484 80.592C451.895 80.2453 451.219 80.072 450.456 80.072L449.26 80.072L447.44 89.432L448.74 89.432ZM485.274 66.76L483.87 73.936L484.754 73.936C486.002 73.936 486.956 73.5027 487.614 72.636C488.307 71.7693 488.654 70.5907 488.654 69.1C488.654 68.1293 488.429 67.5053 487.978 67.228C487.527 66.916 486.869 66.76 486.002 66.76L485.274 66.76ZM482.57 80.488L480.75 89.536L481.998 89.536C482.691 89.536 483.298 89.38 483.818 89.068C484.338 88.7213 484.771 88.2707 485.118 87.716C485.499 87.1267 485.777 86.468 485.95 85.74C486.124 85.012 486.21 84.232 486.21 83.4C486.21 82.36 485.95 81.6147 485.43 81.164C484.945 80.7133 484.373 80.488 483.714 80.488L482.57 80.488ZM490.006 77.264C491.185 77.68 491.982 78.356 492.398 79.292C492.849 80.228 493.074 81.3027 493.074 82.516C493.074 84.5613 492.814 86.4333 492.294 88.132C491.774 89.796 491.029 91.2347 490.058 92.448C489.087 93.6267 487.909 94.5453 486.522 95.204C485.135 95.8627 483.576 96.192 481.842 96.192L472.482 96.192L479.502 60L487.146 60C492.762 60 495.57 62.5307 495.57 67.592C495.57 70.2613 495.085 72.3587 494.114 73.884C493.178 75.4093 491.826 76.4493 490.058 77.004L490.006 77.264ZM507.285 96.192L510.145 81.216L505.621 81.216L502.761 96.192L495.689 96.192L502.709 60L509.781 60L506.973 74.352L511.497 74.352L514.305 60L521.325 60L514.305 96.192L507.285 96.192ZM533.96 66.708C533.371 66.708 532.868 66.8813 532.452 67.228C532.036 67.5747 531.742 68.1467 531.568 68.944L528.136 86.728C528.102 86.9013 528.067 87.0573 528.032 87.196C528.032 87.3 528.032 87.4213 528.032 87.56C528.032 88.8427 528.639 89.484 529.852 89.484C530.442 89.484 530.944 89.328 531.36 89.016C531.776 88.6693 532.071 88.08 532.244 87.248L535.676 69.568C535.746 69.3947 535.78 69.2387 535.78 69.1C535.78 68.9267 535.78 68.7533 535.78 68.58C535.78 67.9213 535.607 67.4533 535.26 67.176C534.914 66.864 534.48 66.708 533.96 66.708ZM534.376 59.688C536.976 59.688 539.056 60.3467 540.616 61.664C542.176 62.9813 542.956 64.888 542.956 67.384C542.956 68.2853 542.852 69.2213 542.644 70.192L539.42 87.352C538.9 90.1947 537.86 92.4307 536.3 94.06C534.74 95.6893 532.435 96.504 529.384 96.504C526.646 96.504 524.548 95.7933 523.092 94.372C521.671 92.9507 520.96 91.0613 520.96 88.704C520.96 88.3227 520.978 87.924 521.012 87.508C521.082 87.092 521.151 86.676 521.22 86.26L524.548 68.788C524.86 67.228 525.259 65.8933 525.744 64.784C526.264 63.64 526.906 62.6867 527.668 61.924C528.466 61.1613 529.402 60.6067 530.476 60.26C531.586 59.8787 532.886 59.688 534.376 59.688ZM555.505 66.76L554.101 73.936L554.985 73.936C556.233 73.936 557.186 73.5027 557.845 72.636C558.538 71.7693 558.885 70.5907 558.885 69.1C558.885 68.1293 558.659 67.5053 558.209 67.228C557.758 66.916 557.099 66.76 556.233 66.76L555.505 66.76ZM552.801 80.488L550.981 89.536L552.229 89.536C552.922 89.536 553.529 89.38 554.049 89.068C554.569 88.7213 555.002 88.2707 555.349 87.716C555.73 87.1267 556.007 86.468 556.181 85.74C556.354 85.012 556.441 84.232 556.441 83.4C556.441 82.36 556.181 81.6147 555.661 81.164C555.175 80.7133 554.603 80.488 553.945 80.488L552.801 80.488ZM560.237 77.264C561.415 77.68 562.213 78.356 562.629 79.292C563.079 80.228 563.305 81.3027 563.305 82.516C563.305 84.5613 563.045 86.4333 562.525 88.132C562.005 89.796 561.259 91.2347 560.289 92.448C559.318 93.6267 558.139 94.5453 556.753 95.204C555.366 95.8627 553.806 96.192 552.073 96.192L542.713 96.192L549.733 60L557.377 60C562.993 60 565.801 62.5307 565.801 67.592C565.801 70.2613 565.315 72.3587 564.345 73.884C563.409 75.4093 562.057 76.4493 560.289 77.004L560.237 77.264ZM565.92 96.192L572.94 60L580.012 60L577.412 73.26L578.244 73.26C579.734 73.26 581.034 73.468 582.144 73.884C583.288 74.2653 584.241 74.82 585.004 75.548C585.766 76.2413 586.338 77.0733 586.72 78.044C587.136 78.98 587.344 80.0027 587.344 81.112C587.344 83.4 587.049 85.48 586.46 87.352C585.87 89.224 585.038 90.8187 583.964 92.136C582.889 93.4187 581.606 94.424 580.116 95.152C578.625 95.8453 576.978 96.192 575.176 96.192L565.92 96.192ZM575.592 89.432C576.146 89.432 576.701 89.2933 577.256 89.016C577.845 88.704 578.348 88.288 578.764 87.768C579.214 87.2133 579.578 86.5373 579.856 85.74C580.133 84.908 580.272 83.972 580.272 82.932C580.272 81.684 579.96 80.904 579.336 80.592C578.746 80.2453 578.07 80.072 577.308 80.072L576.112 80.072L574.292 89.432L575.592 89.432ZM0.572 156.192L7.592 120L23.296 120L21.996 126.76L13.364 126.76L12.064 133.26L13.78 133.26C16.6227 133.26 18.7027 133.884 20.02 135.132C21.3373 136.38 21.996 138.235 21.996 140.696C21.996 142.811 21.7013 144.821 21.112 146.728C20.5573 148.6 19.76 150.247 18.72 151.668C17.68 153.055 16.4147 154.164 14.924 154.996C13.468 155.793 11.8213 156.192 9.984 156.192L0.572 156.192ZM10.4 149.432C11.544 149.432 12.584 148.895 13.52 147.82C14.456 146.745 14.924 145.081 14.924 142.828C14.924 142.204 14.8373 141.719 14.664 141.372C14.4907 140.991 14.2653 140.713 13.988 140.54C13.7107 140.332 13.3813 140.211 13 140.176C12.6533 140.107 12.2893 140.072 11.908 140.072L10.764 140.072L8.944 149.432L10.4 149.432ZM34.8782 137.316L41.4822 120L48.4502 120L35.9182 148.132C35.0515 150.073 34.2022 151.599 33.3702 152.708C32.5382 153.817 31.6889 154.667 30.8222 155.256C29.9902 155.845 29.1409 156.227 28.2742 156.4C27.4075 156.608 26.5062 156.729 25.5702 156.764L23.4902 156.764L24.6342 151.044L25.2582 151.044C26.1942 151.044 26.9395 150.836 27.4942 150.42C28.0835 150.004 28.6209 149.397 29.1062 148.6L29.8342 147.144L27.2342 120.052L33.7862 120.052L34.6182 137.316L34.8782 137.316ZM44.9373 156.192L43.5853 163.056L37.9173 163.056L40.3613 150.108L42.6493 149.536C43.2733 149.12 43.7933 148.687 44.2093 148.236C44.6253 147.751 44.972 147.231 45.2493 146.676C45.5613 146.087 45.8213 145.445 46.0293 144.752C46.2373 144.024 46.4453 143.209 46.6533 142.308L51.7493 120L68.8573 120L63.0853 149.432L65.7893 149.432L63.1893 163.056L57.4693 163.056L58.8213 156.192L44.9373 156.192ZM52.9453 141.788C52.5987 143.348 52.1827 144.821 51.6973 146.208C51.2467 147.56 50.7093 148.635 50.0853 149.432L56.3253 149.432L60.7973 126.76L56.3773 126.76L52.9453 141.788ZM68.7204 156.192L75.7404 120L92.3284 120L91.0284 126.76L81.5124 126.76L80.0044 134.352L88.3244 134.352L86.9724 141.268L78.6524 141.268L77.1444 149.432L86.6604 149.432L85.3084 156.192L68.7204 156.192ZM105.097 126.76L99.3773 156.192L92.3053 156.192L98.0253 126.76L92.4613 126.76L93.7613 120L111.961 120L110.661 126.76L105.097 126.76ZM130.587 149.12L129.963 144.492L129.339 139.136L129.079 139.136L125.803 156.192L118.783 156.192L125.803 120L132.303 120L133.863 130.244L135.111 137.212L135.423 137.212L139.115 130.088L144.679 120L151.387 120L144.367 156.192L137.295 156.192L140.571 139.292L140.363 139.292L137.555 144.908L135.319 149.12L130.587 149.12ZM160.957 156.192L163.817 141.216L159.293 141.216L156.433 156.192L149.361 156.192L156.381 120L163.453 120L160.645 134.352L165.169 134.352L167.977 120L174.997 120L167.977 156.192L160.957 156.192ZM187.632 126.708C187.043 126.708 186.54 126.881 186.124 127.228C185.708 127.575 185.414 128.147 185.24 128.944L181.808 146.728C181.774 146.901 181.739 147.057 181.704 147.196C181.704 147.3 181.704 147.421 181.704 147.56C181.704 148.843 182.311 149.484 183.524 149.484C184.114 149.484 184.616 149.328 185.032 149.016C185.448 148.669 185.743 148.08 185.916 147.248L189.348 129.568C189.418 129.395 189.452 129.239 189.452 129.1C189.452 128.927 189.452 128.753 189.452 128.58C189.452 127.921 189.279 127.453 188.932 127.176C188.586 126.864 188.152 126.708 187.632 126.708ZM188.048 119.688C190.648 119.688 192.728 120.347 194.288 121.664C195.848 122.981 196.628 124.888 196.628 127.384C196.628 128.285 196.524 129.221 196.316 130.192L193.092 147.352C192.572 150.195 191.532 152.431 189.972 154.06C188.412 155.689 186.107 156.504 183.056 156.504C180.318 156.504 178.22 155.793 176.764 154.372C175.343 152.951 174.632 151.061 174.632 148.704C174.632 148.323 174.65 147.924 174.684 147.508C174.754 147.092 174.823 146.676 174.892 146.26L178.22 128.788C178.532 127.228 178.931 125.893 179.416 124.784C179.936 123.64 180.578 122.687 181.34 121.924C182.138 121.161 183.074 120.607 184.148 120.26C185.258 119.879 186.558 119.688 188.048 119.688ZM209.176 126.76L203.456 156.192L196.385 156.192L203.404 120L219.993 120L218.693 126.76L209.176 126.76ZM229.171 126.708C228.582 126.708 228.079 126.881 227.663 127.228C227.247 127.575 226.953 128.147 226.779 128.944L223.347 146.728C223.313 146.901 223.278 147.057 223.243 147.196C223.243 147.3 223.243 147.421 223.243 147.56C223.243 148.843 223.85 149.484 225.063 149.484C225.653 149.484 226.155 149.328 226.571 149.016C226.987 148.669 227.282 148.08 227.455 147.248L230.887 129.568C230.957 129.395 230.991 129.239 230.991 129.1C230.991 128.927 230.991 128.753 230.991 128.58C230.991 127.921 230.818 127.453 230.471 127.176C230.125 126.864 229.691 126.708 229.171 126.708ZM229.587 119.688C232.187 119.688 234.267 120.347 235.827 121.664C237.387 122.981 238.167 124.888 238.167 127.384C238.167 128.285 238.063 129.221 237.855 130.192L234.631 147.352C234.111 150.195 233.071 152.431 231.511 154.06C229.951 155.689 227.646 156.504 224.595 156.504C221.857 156.504 219.759 155.793 218.303 154.372C216.882 152.951 216.171 151.061 216.171 148.704C216.171 148.323 216.189 147.924 216.223 147.508C216.293 147.092 216.362 146.676 216.431 146.26L219.759 128.788C220.071 127.228 220.47 125.893 220.955 124.784C221.475 123.64 222.117 122.687 222.879 121.924C223.677 121.161 224.613 120.607 225.687 120.26C226.797 119.879 228.097 119.688 229.587 119.688ZM264.643 119.688C267.451 119.688 269.531 120.381 270.883 121.768C272.235 123.155 272.911 124.888 272.911 126.968C272.911 127.731 272.842 128.407 272.703 128.996L265.683 130.192C265.718 130.019 265.735 129.863 265.735 129.724C265.77 129.551 265.787 129.377 265.787 129.204C265.787 128.407 265.614 127.748 265.267 127.228C264.921 126.708 264.435 126.448 263.811 126.448C263.326 126.448 262.927 126.552 262.615 126.76C262.303 126.933 262.026 127.159 261.783 127.436C261.575 127.713 261.402 128.025 261.263 128.372C261.159 128.684 261.09 128.961 261.055 129.204L257.467 147.664C257.433 147.803 257.415 148.011 257.415 148.288C257.415 148.669 257.519 149.016 257.727 149.328C257.97 149.605 258.455 149.744 259.183 149.744C260.674 149.744 261.714 148.496 262.303 146L269.115 146.936C268.907 148.357 268.543 149.657 268.023 150.836C267.538 151.98 266.879 152.985 266.047 153.852C265.215 154.684 264.193 155.343 262.979 155.828C261.801 156.279 260.397 156.504 258.767 156.504C255.994 156.504 253.897 155.897 252.475 154.684C251.054 153.471 250.343 151.72 250.343 149.432C250.343 148.739 250.43 147.907 250.603 146.936L254.035 129.204C254.313 127.783 254.711 126.483 255.231 125.304C255.751 124.125 256.427 123.12 257.259 122.288C258.091 121.456 259.114 120.815 260.327 120.364C261.541 119.913 262.979 119.688 264.643 119.688ZM282.103 156.192L287.771 126.916L284.027 126.916L278.359 156.192L271.287 156.192L278.307 120L296.143 120L289.123 156.192L282.103 156.192ZM308.898 126.708C308.309 126.708 307.806 126.881 307.39 127.228C306.974 127.575 306.679 128.147 306.506 128.944L303.074 146.728C303.039 146.901 303.005 147.057 302.97 147.196C302.97 147.3 302.97 147.421 302.97 147.56C302.97 148.843 303.577 149.484 304.79 149.484C305.379 149.484 305.882 149.328 306.298 149.016C306.714 148.669 307.009 148.08 307.182 147.248L310.614 129.568C310.683 129.395 310.718 129.239 310.718 129.1C310.718 128.927 310.718 128.753 310.718 128.58C310.718 127.921 310.545 127.453 310.198 127.176C309.851 126.864 309.418 126.708 308.898 126.708ZM309.314 119.688C311.914 119.688 313.994 120.347 315.554 121.664C317.114 122.981 317.894 124.888 317.894 127.384C317.894 128.285 317.79 129.221 317.582 130.192L314.358 147.352C313.838 150.195 312.798 152.431 311.238 154.06C309.678 155.689 307.373 156.504 304.322 156.504C301.583 156.504 299.486 155.793 298.03 154.372C296.609 152.951 295.898 151.061 295.898 148.704C295.898 148.323 295.915 147.924 295.95 147.508C296.019 147.092 296.089 146.676 296.158 146.26L299.486 128.788C299.798 127.228 300.197 125.893 300.682 124.784C301.202 123.64 301.843 122.687 302.606 121.924C303.403 121.161 304.339 120.607 305.414 120.26C306.523 119.879 307.823 119.688 309.314 119.688ZM332.73 120C334.047 120 335.243 120.139 336.318 120.416C337.393 120.693 338.311 121.161 339.074 121.82C339.837 122.444 340.426 123.311 340.842 124.42C341.258 125.495 341.466 126.829 341.466 128.424C341.466 133.139 340.339 136.744 338.086 139.24C335.833 141.701 332.782 142.932 328.934 142.932L327.27 142.932L324.722 156.192L317.65 156.192L324.67 120L332.73 120ZM330.442 126.76L328.622 136.12L329.818 136.12C330.269 136.12 330.771 136.051 331.326 135.912C331.881 135.739 332.401 135.444 332.886 135.028C333.371 134.577 333.77 133.953 334.082 133.156C334.394 132.359 334.55 131.319 334.55 130.036C334.55 128.823 334.273 127.973 333.718 127.488C333.198 127.003 332.47 126.76 331.534 126.76L330.442 126.76ZM355.804 126.76L350.084 156.192L343.012 156.192L348.732 126.76L343.168 126.76L344.468 120L362.668 120L361.368 126.76L355.804 126.76ZM371.735 149.12L366.431 149.12L363.987 156.192L356.447 156.192L370.331 120L378.963 120L378.859 156.192L371.475 156.192L371.735 149.12ZM370.539 136.692L368.719 142.464L371.995 142.464L372.411 136.692L373.087 129.36L372.775 129.36L370.539 136.692ZM391.454 145.636L385.578 145.636L390.05 120L396.966 120L391.454 145.636ZM383.186 156.192L384.59 148.964L391.246 148.964L389.842 156.192L383.186 156.192Z" fill="rgb(255,106,19)" fill-rule="nonzero" />
	<path id="WIN BOX закрыт на ремонтные работы, но скоро здесь вновь будет много спорта!" d="M17.992 18.98C17.6453 20.02 17.3333 20.9387 17.056 21.736C16.7787 22.5333 16.5187 23.2787 16.276 23.972C16.068 24.6307 15.8427 25.272 15.6 25.896C15.3573 26.52 15.0973 27.196 14.82 27.924L11.544 36.192L3.952 36.192L5.876 0L13.52 0L12.688 9.62C12.5147 11.5267 12.324 13.364 12.116 15.132C11.908 16.8653 11.7 18.5467 11.492 20.176L11.752 20.176L15.08 10.816L18.876 0L24.492 0L24.18 10.504C24.1453 11.336 24.1107 12.1333 24.076 12.896C24.0413 13.624 24.0067 14.3867 23.972 15.184C23.9373 15.9467 23.8853 16.7613 23.816 17.628C23.7813 18.4947 23.7467 19.4653 23.712 20.54L24.024 20.54L26.728 10.504L29.588 0L37.648 0L25.532 36.192L17.94 36.192L18.096 28.912L18.304 18.98L17.992 18.98ZM33.4807 36.192L40.5007 0L47.5727 0L40.5527 36.192L33.4807 36.192ZM62.4024 20.228L65.9904 0L72.9064 0L65.8864 36.192L59.8544 36.192L57.7224 24.752L56.5784 17.888L56.3184 17.888L52.8344 36.192L45.8144 36.192L52.8344 0L59.0224 0L60.9464 11.232C61.0504 11.7867 61.1544 12.4627 61.2584 13.26C61.3971 14.0227 61.5184 14.8373 61.6224 15.704C61.7264 16.536 61.8304 17.3507 61.9344 18.148C62.0384 18.9453 62.1078 19.6387 62.1424 20.228L62.4024 20.228ZM94.9695 6.76L93.5655 13.936L94.4495 13.936C95.6975 13.936 96.6508 13.5027 97.3095 12.636C98.0028 11.7693 98.3495 10.5907 98.3495 9.1C98.3495 8.12933 98.1241 7.50533 97.6735 7.228C97.2228 6.916 96.5641 6.76 95.6975 6.76L94.9695 6.76ZM92.2655 20.488L90.4455 29.536L91.6935 29.536C92.3868 29.536 92.9935 29.38 93.5135 29.068C94.0335 28.7213 94.4668 28.2707 94.8135 27.716C95.1948 27.1267 95.4721 26.468 95.6455 25.74C95.8188 25.012 95.9055 24.232 95.9055 23.4C95.9055 22.36 95.6455 21.6147 95.1255 21.164C94.6401 20.7133 94.0681 20.488 93.4095 20.488L92.2655 20.488ZM99.7015 17.264C100.88 17.68 101.677 18.356 102.093 19.292C102.544 20.228 102.769 21.3027 102.769 22.516C102.769 24.5613 102.509 26.4333 101.989 28.132C101.469 29.796 100.724 31.2347 99.7535 32.448C98.7828 33.6267 97.6041 34.5453 96.2175 35.204C94.8308 35.8627 93.2708 36.192 91.5375 36.192L82.1775 36.192L89.1975 0L96.8415 0C102.457 0 105.265 2.53067 105.265 7.592C105.265 10.2613 104.78 12.3587 103.809 13.884C102.873 15.4093 101.521 16.4493 99.7535 17.004L99.7015 17.264ZM118.384 6.708C117.795 6.708 117.293 6.88133 116.877 7.228C116.461 7.57467 116.166 8.14666 115.993 8.944L112.561 26.728C112.526 26.9013 112.491 27.0573 112.456 27.196C112.456 27.3 112.456 27.4213 112.456 27.56C112.456 28.8427 113.063 29.484 114.277 29.484C114.866 29.484 115.368 29.328 115.785 29.016C116.201 28.6693 116.495 28.08 116.669 27.248L120.101 9.568C120.17 9.39467 120.204 9.23867 120.204 9.1C120.204 8.92667 120.204 8.75333 120.204 8.58C120.204 7.92134 120.031 7.45333 119.685 7.176C119.338 6.864 118.905 6.708 118.384 6.708ZM118.8 -0.312C121.4 -0.312 123.48 0.346664 125.04 1.664C126.601 2.98133 127.381 4.888 127.381 7.384C127.381 8.28533 127.277 9.22133 127.069 10.192L123.844 27.352C123.325 30.1947 122.285 32.4307 120.725 34.06C119.165 35.6893 116.859 36.504 113.809 36.504C111.07 36.504 108.973 35.7933 107.517 34.372C106.095 32.9507 105.384 31.0613 105.384 28.704C105.384 28.3227 105.402 27.924 105.437 27.508C105.506 27.092 105.575 26.676 105.645 26.26L108.973 8.788C109.285 7.228 109.683 5.89333 110.169 4.784C110.688 3.64 111.33 2.68667 112.092 1.924C112.89 1.16133 113.826 0.606667 114.9 0.259998C116.01 -0.121334 117.31 -0.312 118.8 -0.312ZM138.455 26.104L133.359 36.192L124.623 36.192L135.751 17.316L132.163 0L140.223 0L141.211 8.424L141.523 8.424L145.683 0L154.523 0L143.967 17.316L148.023 36.192L139.911 36.192L138.663 26.104L138.455 26.104ZM175.377 -0.312C178.012 -0.312 180.022 0.398666 181.409 1.82C182.83 3.20667 183.541 5.02666 183.541 7.28C183.541 8.28533 183.472 9.29067 183.333 10.296C183.229 11.3013 182.986 12.2547 182.605 13.156C182.258 14.0573 181.773 14.8893 181.149 15.652C180.525 16.38 179.728 16.9693 178.757 17.42L178.757 17.524C179.45 17.9053 179.97 18.4947 180.317 19.292C180.664 20.0893 180.837 21.06 180.837 22.204C180.837 26.7453 179.797 30.264 177.717 32.76C175.637 35.256 172.76 36.504 169.085 36.504C166.485 36.504 164.509 35.8627 163.157 34.58C161.84 33.2627 161.181 31.512 161.181 29.328C161.181 28.7387 161.233 28.0973 161.337 27.404L168.617 26C168.582 26.2427 168.548 26.4853 168.513 26.728C168.513 26.936 168.513 27.1267 168.513 27.3C168.513 28.0973 168.652 28.6693 168.929 29.016C169.241 29.328 169.692 29.484 170.281 29.484C170.836 29.484 171.321 29.2933 171.737 28.912C172.153 28.496 172.482 27.976 172.725 27.352C173.002 26.6933 173.193 25.9653 173.297 25.168C173.436 24.3707 173.505 23.5733 173.505 22.776C173.505 21.8053 173.297 21.1813 172.881 20.904C172.465 20.592 171.91 20.436 171.217 20.436L169.761 20.436L170.905 14.508L172.985 14.508C173.99 14.508 174.788 14.0053 175.377 13C175.966 11.96 176.261 10.66 176.261 9.1C176.261 8.54533 176.14 8.008 175.897 7.488C175.654 6.968 175.186 6.708 174.493 6.708C173.73 6.708 173.072 7.02 172.517 7.644C171.997 8.268 171.616 9.11733 171.373 10.192L164.717 8.684C165.41 5.772 166.641 3.55333 168.409 2.028C170.212 0.467999 172.534 -0.312 175.377 -0.312ZM195.524 29.12L190.22 29.12L187.776 36.192L180.236 36.192L194.12 0L202.752 0L202.648 36.192L195.264 36.192L195.524 29.12ZM194.328 16.692L192.508 22.464L195.784 22.464L196.2 16.692L196.876 9.36L196.564 9.36L194.328 16.692ZM205.727 36.192L212.747 -0.052002L219.663 -0.052002L216.751 14.82L217.479 14.82C218.276 14.82 218.987 14.4213 219.611 13.624C220.27 12.792 220.894 11.6307 221.483 10.14L225.279 0.104L232.195 0.104L227.931 11.128C227.238 12.896 226.371 14.3 225.331 15.34C224.291 16.38 223.234 17.0907 222.159 17.472C223.372 17.9573 224.274 18.6853 224.863 19.656C225.487 20.592 225.799 21.944 225.799 23.712L225.799 36.192L219.195 36.192L219.299 25.844C219.334 24.4573 219.16 23.3133 218.779 22.412C218.432 21.5107 217.67 21.06 216.491 21.06L215.555 21.06L212.643 36.192L205.727 36.192ZM244.066 0C245.383 0 246.579 0.138664 247.654 0.416C248.729 0.693336 249.647 1.16133 250.41 1.82C251.173 2.444 251.762 3.31067 252.178 4.42C252.594 5.49467 252.802 6.82933 252.802 8.424C252.802 13.1387 251.675 16.744 249.422 19.24C247.169 21.7013 244.118 22.932 240.27 22.932L238.606 22.932L236.058 36.192L228.986 36.192L236.006 0L244.066 0ZM241.778 6.76L239.958 16.12L241.154 16.12C241.605 16.12 242.107 16.0507 242.662 15.912C243.217 15.7387 243.737 15.444 244.222 15.028C244.707 14.5773 245.106 13.9533 245.418 13.156C245.73 12.3587 245.886 11.3187 245.886 10.036C245.886 8.82266 245.609 7.97333 245.054 7.488C244.534 7.00267 243.806 6.76 242.87 6.76L241.778 6.76ZM272.34 36.192L279.36 0L286.432 0L279.412 36.192L272.34 36.192ZM251.228 36.192L258.248 0L265.32 0L262.72 13.26L263.552 13.26C265.043 13.26 266.343 13.468 267.452 13.884C268.596 14.2653 269.55 14.82 270.312 15.548C271.075 16.2413 271.647 17.0733 272.028 18.044C272.444 18.98 272.652 20.0027 272.652 21.112C272.652 23.4 272.358 25.48 271.768 27.352C271.179 29.224 270.347 30.8187 269.272 32.136C268.198 33.4187 266.915 34.424 265.424 35.152C263.934 35.8453 262.287 36.192 260.484 36.192L251.228 36.192ZM260.9 29.432C261.455 29.432 262.01 29.2933 262.564 29.016C263.154 28.704 263.656 28.288 264.072 27.768C264.523 27.2133 264.887 26.5373 265.164 25.74C265.442 24.908 265.58 23.972 265.58 22.932C265.58 21.684 265.268 20.904 264.644 20.592C264.055 20.2453 263.379 20.072 262.616 20.072L261.42 20.072L259.6 29.432L260.9 29.432ZM300.554 6.76L294.834 36.192L287.762 36.192L293.482 6.76L287.918 6.76L289.218 0L307.418 0L306.118 6.76L300.554 6.76ZM326.148 36.192L329.008 21.216L324.484 21.216L321.624 36.192L314.552 36.192L321.572 0L328.644 0L325.836 14.352L330.36 14.352L333.168 0L340.188 0L333.168 36.192L326.148 36.192ZM351.524 29.12L346.22 29.12L343.776 36.192L336.236 36.192L350.12 0L358.752 0L358.648 36.192L351.264 36.192L351.524 29.12ZM350.328 16.692L348.508 22.464L351.784 22.464L352.2 16.692L352.876 9.36L352.564 9.36L350.328 16.692ZM388.031 0C389.348 0 390.544 0.138664 391.619 0.416C392.694 0.693336 393.612 1.16133 394.375 1.82C395.138 2.444 395.727 3.31067 396.143 4.42C396.559 5.49467 396.767 6.82933 396.767 8.424C396.767 13.1387 395.64 16.744 393.387 19.24C391.134 21.7013 388.083 22.932 384.235 22.932L382.571 22.932L380.023 36.192L372.951 36.192L379.971 0L388.031 0ZM385.743 6.76L383.923 16.12L385.119 16.12C385.57 16.12 386.072 16.0507 386.627 15.912C387.182 15.7387 387.702 15.444 388.187 15.028C388.672 14.5773 389.071 13.9533 389.383 13.156C389.695 12.3587 389.851 11.3187 389.851 10.036C389.851 8.82266 389.574 7.97333 389.019 7.488C388.499 7.00267 387.771 6.76 386.835 6.76L385.743 6.76ZM395.193 36.192L402.213 0L418.801 0L417.501 6.76L407.985 6.76L406.477 14.352L414.797 14.352L413.445 21.268L405.125 21.268L403.617 29.432L413.133 29.432L411.781 36.192L395.193 36.192ZM427.15 29.12L426.526 24.492L425.902 19.136L425.642 19.136L422.366 36.192L415.346 36.192L422.366 0L428.866 0L430.426 10.244L431.674 17.212L431.986 17.212L435.678 10.088L441.242 0L447.95 0L440.93 36.192L433.858 36.192L437.134 19.292L436.926 19.292L434.118 24.908L431.882 29.12L427.15 29.12ZM460.328 6.708C459.738 6.708 459.236 6.88133 458.82 7.228C458.404 7.57467 458.109 8.14666 457.936 8.944L454.504 26.728C454.469 26.9013 454.434 27.0573 454.4 27.196C454.4 27.3 454.4 27.4213 454.4 27.56C454.4 28.8427 455.006 29.484 456.22 29.484C456.809 29.484 457.312 29.328 457.728 29.016C458.144 28.6693 458.438 28.08 458.612 27.248L462.044 9.568C462.113 9.39467 462.148 9.23867 462.148 9.1C462.148 8.92667 462.148 8.75333 462.148 8.58C462.148 7.92134 461.974 7.45333 461.628 7.176C461.281 6.864 460.848 6.708 460.328 6.708ZM460.744 -0.312C463.344 -0.312 465.424 0.346664 466.984 1.664C468.544 2.98133 469.324 4.888 469.324 7.384C469.324 8.28533 469.22 9.22133 469.012 10.192L465.788 27.352C465.268 30.1947 464.228 32.4307 462.668 34.06C461.108 35.6893 458.802 36.504 455.752 36.504C453.013 36.504 450.916 35.7933 449.46 34.372C448.038 32.9507 447.328 31.0613 447.328 28.704C447.328 28.3227 447.345 27.924 447.38 27.508C447.449 27.092 447.518 26.676 447.588 26.26L450.916 8.788C451.228 7.228 451.626 5.89333 452.112 4.784C452.632 3.64 453.273 2.68667 454.036 1.924C454.833 1.16133 455.769 0.606667 456.844 0.259998C457.953 -0.121334 459.253 -0.312 460.744 -0.312ZM480.676 36.192L483.536 21.216L479.012 21.216L476.152 36.192L469.08 36.192L476.1 0L483.172 0L480.364 14.352L484.888 14.352L487.696 0L494.716 0L487.696 36.192L480.676 36.192ZM508.859 6.76L503.139 36.192L496.067 36.192L501.787 6.76L496.223 6.76L497.523 0L515.723 0L514.423 6.76L508.859 6.76ZM523.281 36.192L526.141 21.216L521.617 21.216L518.757 36.192L511.685 36.192L518.705 0L525.777 0L522.969 14.352L527.493 14.352L530.301 0L537.321 0L530.301 36.192L523.281 36.192ZM556.664 36.192L563.684 0L570.756 0L563.736 36.192L556.664 36.192ZM535.552 36.192L542.572 0L549.644 0L547.044 13.26L547.876 13.26C549.367 13.26 550.667 13.468 551.776 13.884C552.92 14.2653 553.874 14.82 554.636 15.548C555.399 16.2413 555.971 17.0733 556.352 18.044C556.768 18.98 556.976 20.0027 556.976 21.112C556.976 23.4 556.682 25.48 556.092 27.352C555.503 29.224 554.671 30.8187 553.596 32.136C552.522 33.4187 551.239 34.424 549.748 35.152C548.258 35.8453 546.611 36.192 544.808 36.192L535.552 36.192ZM545.224 29.432C545.779 29.432 546.334 29.2933 546.888 29.016C547.478 28.704 547.98 28.288 548.396 27.768C548.847 27.2133 549.211 26.5373 549.488 25.74C549.766 24.908 549.904 23.972 549.904 22.932C549.904 21.684 549.592 20.904 548.968 20.592C548.379 20.2453 547.703 20.072 546.94 20.072L545.744 20.072L543.924 29.432L545.224 29.432ZM568.967 36.192L575.987 0L592.575 0L591.275 6.76L581.759 6.76L580.251 14.352L588.571 14.352L587.219 21.268L578.899 21.268L577.391 29.432L586.907 29.432L585.555 36.192L568.967 36.192ZM15.652 60C16.9693 60 18.1653 60.1387 19.24 60.416C20.3147 60.6933 21.2333 61.1613 21.996 61.82C22.7587 62.444 23.348 63.3107 23.764 64.42C24.18 65.4947 24.388 66.8293 24.388 68.424C24.388 73.1387 23.2613 76.744 21.008 79.24C18.7547 81.7013 15.704 82.932 11.856 82.932L10.192 82.932L7.644 96.192L0.572 96.192L7.592 60L15.652 60ZM13.364 66.76L11.544 76.12L12.74 76.12C13.1907 76.12 13.6933 76.0507 14.248 75.912C14.8027 75.7387 15.3227 75.444 15.808 75.028C16.2933 74.5773 16.692 73.9533 17.004 73.156C17.316 72.3587 17.472 71.3187 17.472 70.036C17.472 68.8227 17.1947 67.9733 16.64 67.488C16.12 67.0027 15.392 66.76 14.456 66.76L13.364 66.76ZM33.8362 89.12L28.5322 89.12L26.0882 96.192L18.5482 96.192L32.4322 60L41.0642 60L40.9602 96.192L33.5762 96.192L33.8362 89.12ZM32.6402 76.692L30.8202 82.464L34.0962 82.464L34.5122 76.692L35.1882 69.36L34.8762 69.36L32.6402 76.692ZM44.0915 96.192L51.1115 60L66.8155 60L65.5155 66.76L56.8835 66.76L55.5835 73.26L57.2995 73.26C60.1422 73.26 62.2222 73.884 63.5395 75.132C64.8569 76.38 65.5155 78.2347 65.5155 80.696C65.5155 82.8107 65.2209 84.8213 64.6315 86.728C64.0769 88.6 63.2795 90.2467 62.2395 91.668C61.1995 93.0547 59.9342 94.164 58.4435 94.996C56.9875 95.7933 55.3409 96.192 53.5035 96.192L44.0915 96.192ZM53.9195 89.432C55.0635 89.432 56.1035 88.8947 57.0395 87.82C57.9755 86.7453 58.4435 85.0813 58.4435 82.828C58.4435 82.204 58.3569 81.7187 58.1835 81.372C58.0102 80.9907 57.7849 80.7133 57.5075 80.54C57.2302 80.332 56.9009 80.2107 56.5195 80.176C56.1729 80.1067 55.8089 80.072 55.4275 80.072L54.2835 80.072L52.4635 89.432L53.9195 89.432ZM80.7377 66.708C80.1484 66.708 79.6457 66.8813 79.2297 67.228C78.8137 67.5747 78.5191 68.1467 78.3457 68.944L74.9137 86.728C74.8791 86.9013 74.8444 87.0573 74.8097 87.196C74.8097 87.3 74.8097 87.4213 74.8097 87.56C74.8097 88.8427 75.4164 89.484 76.6297 89.484C77.2191 89.484 77.7217 89.328 78.1377 89.016C78.5537 88.6693 78.8484 88.08 79.0217 87.248L82.4537 69.568C82.5231 69.3947 82.5577 69.2387 82.5577 69.1C82.5577 68.9267 82.5577 68.7533 82.5577 68.58C82.5577 67.9213 82.3844 67.4533 82.0377 67.176C81.6911 66.864 81.2577 66.708 80.7377 66.708ZM81.1537 59.688C83.7537 59.688 85.8337 60.3467 87.3937 61.664C88.9537 62.9813 89.7337 64.888 89.7337 67.384C89.7337 68.2853 89.6297 69.2213 89.4217 70.192L86.1977 87.352C85.6777 90.1947 84.6377 92.4307 83.0777 94.06C81.5177 95.6893 79.2124 96.504 76.1617 96.504C73.423 96.504 71.3257 95.7933 69.8697 94.372C68.4484 92.9507 67.7377 91.0613 67.7377 88.704C67.7377 88.3227 67.7551 87.924 67.7897 87.508C67.8591 87.092 67.9284 86.676 67.9977 86.26L71.3257 68.788C71.6377 67.228 72.0364 65.8933 72.5217 64.784C73.0417 63.64 73.6831 62.6867 74.4457 61.924C75.2431 61.1613 76.1791 60.6067 77.2537 60.26C78.3631 59.8787 79.6631 59.688 81.1537 59.688ZM105.402 66.76L99.682 96.192L92.61 96.192L98.33 66.76L92.766 66.76L94.066 60L112.266 60L110.966 66.76L105.402 66.76ZM129.34 96.192L136.36 60L143.432 60L136.412 96.192L129.34 96.192ZM108.228 96.192L115.248 60L122.32 60L119.72 73.26L120.552 73.26C122.043 73.26 123.343 73.468 124.452 73.884C125.596 74.2653 126.55 74.82 127.312 75.548C128.075 76.2413 128.647 77.0733 129.028 78.044C129.444 78.98 129.652 80.0027 129.652 81.112C129.652 83.4 129.358 85.48 128.768 87.352C128.179 89.224 127.347 90.8187 126.272 92.136C125.198 93.4187 123.915 94.424 122.424 95.152C120.934 95.8453 119.287 96.192 117.484 96.192L108.228 96.192ZM117.9 89.432C118.455 89.432 119.01 89.2933 119.564 89.016C120.154 88.704 120.656 88.288 121.072 87.768C121.523 87.2133 121.887 86.5373 122.164 85.74C122.442 84.908 122.58 83.972 122.58 82.932C122.58 81.684 122.268 80.904 121.644 80.592C121.055 80.2453 120.379 80.072 119.616 80.072L118.42 80.072L116.6 89.432L117.9 89.432ZM143.826 104.148L139.874 104.148L143.098 96.4L141.59 96.4L143.15 88.392L150.222 88.392L148.662 96.244L143.826 104.148ZM176.598 96.192L179.458 81.216L174.934 81.216L172.074 96.192L165.002 96.192L172.022 60L179.094 60L176.286 74.352L180.81 74.352L183.618 60L190.638 60L183.618 96.192L176.598 96.192ZM203.273 66.708C202.684 66.708 202.181 66.8813 201.765 67.228C201.349 67.5747 201.054 68.1467 200.881 68.944L197.449 86.728C197.414 86.9013 197.38 87.0573 197.345 87.196C197.345 87.3 197.345 87.4213 197.345 87.56C197.345 88.8427 197.952 89.484 199.165 89.484C199.754 89.484 200.257 89.328 200.673 89.016C201.089 88.6693 201.384 88.08 201.557 87.248L204.989 69.568C205.058 69.3947 205.093 69.2387 205.093 69.1C205.093 68.9267 205.093 68.7533 205.093 68.58C205.093 67.9213 204.92 67.4533 204.573 67.176C204.226 66.864 203.793 66.708 203.273 66.708ZM203.689 59.688C206.289 59.688 208.369 60.3467 209.929 61.664C211.489 62.9813 212.269 64.888 212.269 67.384C212.269 68.2853 212.165 69.2213 211.957 70.192L208.733 87.352C208.213 90.1947 207.173 92.4307 205.613 94.06C204.053 95.6893 201.748 96.504 198.697 96.504C195.958 96.504 193.861 95.7933 192.405 94.372C190.984 92.9507 190.273 91.0613 190.273 88.704C190.273 88.3227 190.29 87.924 190.325 87.508C190.394 87.092 190.464 86.676 190.533 86.26L193.861 68.788C194.173 67.228 194.572 65.8933 195.057 64.784C195.577 63.64 196.218 62.6867 196.981 61.924C197.778 61.1613 198.714 60.6067 199.789 60.26C200.898 59.8787 202.198 59.688 203.689 59.688Z" fill="rgb(255,255,255)" fill-rule="nonzero" />
</svg>
