<svg viewBox="0 0 539.849 340.01" xmlns="http://www.w3.org/2000/svg" xmlns:xlink="http://www.w3.org/1999/xlink" width="539.849121" height="340.010010" fill="none" customFrame="#000000">
	<path id="WIN BOX" d="M228.28 0L272.88 0L226.45 152.73L172.08 152.73L136.52 47.86L100.8 152.73L46.63 152.73L0 0L44.8 0L76.84 113.41L114.24 0L158.84 0L196.29 113.22L228.28 0ZM289.17 0L331.32 0L331.32 152.73L289.17 152.73L289.17 0ZM476.1 152.73L400.75 45.36L400.75 152.73L359.82 152.73L359.82 0L414.4 0L488.32 104.74L488.32 0L529.25 0L529.25 152.73L476.1 152.73ZM354.739 218.63C347.139 206.69 336.549 197.38 322.969 190.73C309.389 184.08 293.509 180.75 275.319 180.75C257.129 180.75 241.419 184.08 227.769 190.73C214.129 197.38 203.539 206.68 195.999 218.63C188.459 230.58 184.699 244.49 184.699 260.38C184.699 276.27 188.469 290.18 195.999 302.13C203.529 314.08 214.119 323.38 227.769 330.03C241.419 336.68 257.269 340.01 275.319 340.01C293.369 340.01 309.399 336.68 322.969 330.03C336.539 323.38 347.129 314.08 354.739 302.13C362.339 290.19 366.139 276.27 366.139 260.38C366.139 244.49 362.339 230.58 354.739 218.63ZM148.349 259.46C145.399 258.18 142.139 257.13 138.579 256.31C139.859 255.7 141.099 255.07 142.239 254.37C148.829 250.37 153.609 245.44 156.599 239.61C159.579 233.77 161.079 227.67 161.079 221.28C161.079 209.61 157.139 200.48 149.269 193.89C141.389 187.31 130.399 184.01 116.279 184.01L7.5293 184.01L19.3393 258.34L7.5293 336.74L120.349 336.74C131.619 336.74 141.019 334.87 148.549 331.14C156.079 327.41 161.749 322.32 165.559 315.87C169.359 309.42 171.259 302.06 171.259 293.77C171.259 286.03 169.359 279.21 165.559 273.31C161.749 267.4 156.019 262.79 148.349 259.46ZM475.389 257.38L539.849 336.74L487.929 336.74L448.809 286.19L409.519 336.74L358.199 336.74L423.179 257.37L362.689 184.01L415.429 184.01L449.769 228.35L483.649 184.01L535.569 184.01L475.389 257.38ZM113.829 217.51C116.679 220.16 118.109 223.52 118.109 227.59C118.109 232.61 116.449 236.58 113.119 239.5C109.789 242.42 105.689 243.88 100.799 243.88L57.3393 243.88L52.4593 213.54L101.619 213.54C106.909 213.54 110.989 214.86 113.839 217.51L113.829 217.51ZM317.579 282.78C313.709 289.03 308.179 293.85 300.979 297.24C293.779 300.64 285.229 302.33 275.319 302.33C265.409 302.33 257.059 300.63 249.869 297.24C242.669 293.85 237.099 289.03 233.169 282.78C229.229 276.54 227.259 269.07 227.259 260.38C227.259 251.69 229.229 244.22 233.169 237.98C237.099 231.74 242.669 226.92 249.869 223.52C257.059 220.13 265.549 218.43 275.319 218.43C285.089 218.43 293.779 220.13 300.979 223.52C308.169 226.92 313.709 231.74 317.579 237.98C321.449 244.23 323.379 251.7 323.379 260.38C323.379 269.06 321.449 276.54 317.579 282.78ZM123.199 302.73C119.809 305.72 115.059 307.21 108.939 307.21L52.2593 307.21L57.4693 272.79L106.499 272.79C113.689 272.79 119.129 274.39 122.789 277.57C126.459 280.76 128.289 285 128.289 290.3C128.289 295.6 126.589 299.74 123.199 302.72L123.199 302.73Z" fill="rgb(255,255,255)" fill-rule="evenodd" />
</svg>
