<svg viewBox="0 0 2560 1460" xmlns="http://www.w3.org/2000/svg" xmlns:xlink="http://www.w3.org/1999/xlink" width="2560.000000" height="1460.000000" fill="none">
	<rect id="desktop" width="2560.000000" height="1460.000000" x="0.000000" y="0.000000" fill="rgb(20,20,25)" />
	<g id="Group">
		<path id="Vector" d="M117.045 115.643C158.301 106.453 199.509 97.2637 240.765 88.0742C213.922 149.257 187.079 210.44 160.236 271.574C161.397 271.381 161.977 271.332 163.09 271.139C217.985 204.104 272.396 136.73 326.421 68.9697C357.859 61.9566 389.345 54.9436 420.783 47.9305C394.085 113.273 367.387 178.567 340.689 243.909C341.85 243.715 342.382 243.667 343.543 243.474C398.148 172.231 452.366 100.698 506.149 28.9228C549.436 19.298 592.723 9.6248 636.059 0C518.966 146.307 399.889 291.017 278.2 433.551C245.795 436.163 213.39 438.775 180.985 441.435C206.716 378.995 232.446 316.554 258.177 254.066C257.258 254.211 256.774 254.259 255.855 254.404C203.523 319.36 150.756 383.928 97.5055 448.158C65.0037 450.77 32.5018 453.43 0 456.042C39.0312 342.575 78.0625 229.109 116.949 115.594L117.045 115.643Z" fill="rgb(255,106,19)" fill-rule="nonzero" transform="matrix(0.819662,0.572847,-0.572847,0.819662,238.24,673.449)" />
		<path id="Vector" d="M254.404 26.1176C293.484 17.4117 332.564 8.70585 371.643 0C285.117 149.402 198.155 298.466 110.613 447.239C73.7579 450.238 36.8548 453.188 0 456.187C85.3657 313.169 170.151 169.764 254.453 26.1176L254.404 26.1176Z" fill="rgb(255,106,19)" fill-rule="nonzero" transform="matrix(0.819662,0.572847,-0.572847,0.819662,598.85,884.172)" />
		<path id="Vector" d="M264.996 72.7906C297.111 65.6324 329.275 58.4743 361.39 51.3162C356.795 119.609 351.716 187.853 346.203 256.049C346.88 255.952 347.218 255.904 347.896 255.759C391.376 179.002 434.712 102.149 478 25.2953C515.822 16.8797 553.644 8.46402 591.466 0C497.539 168.7 403.129 337.158 308.235 505.278C278.007 507.745 247.778 510.163 217.598 512.63C223.692 442.886 229.351 373.142 234.526 303.351C233.849 303.447 233.51 303.496 232.833 303.592C191.142 376.286 149.402 448.932 107.517 521.529C71.6782 524.431 35.8391 527.333 0 530.235C88.8481 378.027 177.164 225.53 264.996 72.6939L264.996 72.7906Z" fill="rgb(255,106,19)" fill-rule="nonzero" transform="matrix(0.819662,0.572847,-0.572847,0.819662,794.428,912.982)" />
		<path id="Vector" d="M287.148 25.8273C325.792 17.2182 364.485 8.60912 403.129 0C331.741 130.201 260.16 260.257 188.288 390.167C228.093 385.331 267.898 380.494 307.703 375.657C280.86 424.749 253.969 473.84 227.078 522.931C151.385 529.074 75.6925 535.216 0 541.31C96.1997 369.757 191.867 197.913 287.1 25.8273L287.148 25.8273Z" fill="rgb(255,106,19)" fill-rule="nonzero" transform="matrix(0.819662,0.572847,-0.572847,0.819662,1124.68,1093.41)" />
		<path id="Vector" d="M302.722 25.7306C341.173 17.1699 379.672 8.60912 418.123 0C315.539 191.384 212.519 382.525 109.065 573.474C72.6938 576.424 36.3711 579.374 0 582.325C101.326 397.035 202.218 211.504 302.673 25.7306L302.722 25.7306Z" fill="rgb(255,106,19)" fill-rule="nonzero" transform="matrix(0.819662,0.572847,-0.572847,0.819662,1377.94,1194.17)" />
		<path id="Vector" d="M312.879 71.6298C344.51 64.5684 376.141 57.5553 407.772 50.4939C395.197 138.326 382.187 226.159 368.838 313.894C369.515 313.798 369.854 313.749 370.531 313.604C421.315 217.404 472.002 121.156 522.593 24.9084C559.835 16.5895 597.076 8.31892 634.318 0C524.576 210.391 414.447 420.589 303.931 630.594C274.138 633.012 244.344 635.43 214.551 637.849C228.48 548.517 242.071 459.089 255.323 369.612C254.646 369.708 254.308 369.757 253.63 369.854C204.491 462.136 155.303 554.418 106.018 646.603C70.6626 649.457 35.3554 652.31 0 655.164C104.712 460.878 208.941 266.351 312.83 71.5814L312.879 71.6298Z" fill="rgb(255,106,19)" fill-rule="nonzero" transform="matrix(0.819662,0.572847,-0.572847,0.819662,1570.7,1222.74)" />
		<path id="Vector" d="M334.063 55.2822C416.768 36.8548 499.474 18.4274 582.18 0C553.837 55.4273 525.447 110.854 497.056 166.233C452.995 174.601 408.933 182.968 364.92 191.335C348.669 222.821 332.419 254.308 316.168 285.794C347.799 280.425 379.43 275.008 411.061 269.64C384.702 320.811 358.343 371.982 331.983 423.153C300.739 427.457 269.543 431.762 238.299 436.066C222.193 467.166 206.087 498.313 189.981 529.412C234.623 524.189 279.264 518.965 323.858 513.742C295.951 568.008 267.995 622.227 240.04 676.493C160.043 682.974 79.9971 689.455 0 695.936C111.773 482.594 223.16 269.059 334.16 55.3305L334.063 55.2822Z" fill="rgb(255,106,19)" fill-rule="nonzero" transform="matrix(0.819662,0.572847,-0.572847,0.819662,1913.52,1376.23)" />
	</g>
	<rect id="Rectangle 41" width="2328.000000" height="1228.000000" x="116.000000" y="116.000000" rx="76.000000" stroke="rgb(255,255,255)" stroke-width="32.000000" />
	<g id="Group 2136140272">
		<path id="Vector" d="M0 457.757L182.946 225.409L2936.86 0L2118.44 1100.95L0 457.757Z" fill="rgb(255,106,19)" fill-rule="nonzero" transform="matrix(0.59421,-0.80431,0.80431,0.59421,-395.001,730.149)" />
		<g id="Group">
			<path id="Vector" d="M117.371 31.9081C148.253 29.3672 164.476 28.0478 198.485 25.3115C172.587 53.7502 146.64 82.1401 120.84 110.628C121.573 110.677 121.964 110.725 122.697 110.774C168.727 81.3583 213.926 50.7207 259.32 20.3762C286.928 18.1285 301.197 16.9558 330.515 14.5614C301.881 50.0366 273.002 85.2674 244.319 120.694C245.15 120.743 245.59 120.791 246.42 120.84C297.679 84.2901 348.106 46.6161 398.631 8.99095C435.279 6.01025 471.927 2.98069 508.575 0C397.41 79.9413 283.313 155.24 171.072 233.52C146.201 225.995 133.985 222.282 109.846 214.903C135.695 181.676 160.958 148.057 186.318 114.488C185.683 114.439 185.389 114.39 184.754 114.341C143.415 143.709 100.366 170.535 58.6366 199.364C34.9376 192.182 23.2592 188.614 0 181.529C39.0911 131.59 78.1821 81.7003 117.518 31.9569L117.371 31.9081Z" fill="rgb(20,20,25)" fill-rule="nonzero" transform="matrix(0.59421,-0.80431,0.80431,0.59421,-140.616,801.016)" />
			<path id="Vector" d="M277.547 8.79551C313.266 5.86368 348.986 2.93183 384.705 0C283.557 100.464 180.063 197.703 76.3253 295.431C45.0525 285.951 29.8558 281.309 0 272.269C92.3038 184.217 185.78 97.4345 277.547 8.74663L277.547 8.79551Z" fill="rgb(20,20,25)" fill-rule="nonzero" transform="matrix(0.59421,-0.80431,0.80431,0.59421,5.64252,583.962)" />
			<path id="Vector" d="M327.681 27.4126C359.296 24.8228 390.96 22.2331 422.575 19.6433C405.912 76.8628 386.22 133.007 365.795 188.956C366.43 188.956 366.723 189.005 367.358 189.054C425.458 129.245 483.605 69.5332 541.851 9.8705C582.017 6.59662 622.232 3.27388 662.398 0C524.602 140.923 386.22 280.283 244.075 416.906C212.9 407.427 197.703 402.834 167.994 393.794C198.436 332.225 227.803 270.217 255.216 207.28C254.63 207.232 254.287 207.183 253.701 207.134C195.895 260.395 138.04 313.657 80.6253 367.31C47.4957 357.244 31.4195 352.357 0 342.829C110.872 238.993 220.522 135.206 327.632 27.4615L327.681 27.4126Z" fill="rgb(20,20,25)" fill-rule="nonzero" transform="matrix(0.59421,-0.80431,0.80431,0.59421,52.7822,464.807)" />
			<path id="Vector" d="M436.647 10.7012C480.332 7.13412 524.016 3.56706 567.7 0C454.825 117.322 341.851 234.546 228.39 351.331C270.07 358.319 311.751 365.306 353.432 372.342C307.793 420.571 262.155 468.849 216.516 517.126C144.344 495.235 72.1719 473.295 0 451.404C147.52 306.425 291.717 158.319 436.647 10.75L436.647 10.7012Z" fill="rgb(20,20,25)" fill-rule="nonzero" transform="matrix(0.59421,-0.80431,0.80431,0.59421,218.553,211.895)" />
			<path id="Vector" d="M510.09 12.1182C559.393 8.06255 608.648 4.0557 657.952 0C477.595 197.654 297.043 395.162 116.491 592.67C77.6446 580.893 38.8468 569.068 0 557.292C170.242 375.763 340.239 194.038 510.041 12.1182L510.09 12.1182Z" fill="rgb(20,20,25)" fill-rule="nonzero" transform="matrix(0.59421,-0.80431,0.80431,0.59421,347.615,-10.5077)" />
			<path id="Vector" d="M560.419 38.9445C604.592 35.3286 648.765 31.7126 692.938 28.0967C655.46 133.594 617.101 238.749 578.157 343.708C579.134 343.757 579.623 343.806 580.551 343.855C674.223 233.862 768.091 124.016 862.056 14.2682C920.253 9.52845 978.45 4.73979 1036.65 0C820.619 260.005 604.006 519.569 387.637 779.281C346.787 766.869 305.985 754.507 265.135 742.095C313.804 622.135 361.934 502.027 409.284 381.529C408.355 381.431 407.915 381.431 407.036 381.333C313.217 487.319 219.643 593.549 126.264 699.926C84.1925 687.123 42.0718 674.37 0 661.568C186.806 454.043 373.711 246.616 560.468 38.9934L560.419 38.9445Z" fill="rgb(20,20,25)" fill-rule="nonzero" transform="matrix(0.59421,-0.80431,0.80431,0.59421,423.21,-191.119)" />
			<path id="Vector" d="M667.529 36.257C815.195 24.1876 962.911 12.0694 1110.58 0C1054.63 74.4196 998.63 148.839 942.583 223.161C862.642 223.796 782.75 224.48 702.809 225.165C670.412 266.406 638.015 307.647 605.619 348.839C661.812 350.989 717.956 353.188 774.15 355.338C719.178 427.265 664.108 499.095 608.892 570.876C554.605 564.084 500.317 557.341 446.078 550.549C412.118 593.403 378.206 636.256 344.295 679.11C421.646 693.525 499.046 707.939 576.398 722.403C513.559 805.276 450.72 888.149 387.881 971.022C258.587 931.785 129.294 892.498 0 853.26C222.673 581.04 445.443 308.917 667.578 36.257L667.529 36.257Z" fill="rgb(20,20,25)" fill-rule="nonzero" transform="matrix(0.59421,-0.80431,0.80431,0.59421,672.793,-605.498)" />
		</g>
	</g>
</svg>
