<svg viewBox="0 0 241.337 152" xmlns="http://www.w3.org/2000/svg" xmlns:xlink="http://www.w3.org/1999/xlink" width="241.337402" height="152.000122" fill="none" customFrame="#000000">
	<path id="WIN BOX" d="M102.052 0L121.99 0L101.234 68.2773L76.9277 68.2773L61.0307 21.3956L45.0622 68.2773L20.8458 68.2773L0 0L20.0277 0L34.351 50.6995L51.0705 0L71.0088 0L87.7507 50.6145L102.052 0ZM129.272 0L148.115 0L148.115 68.2773L129.272 68.2773L129.272 0ZM212.839 68.2773L179.154 20.278L179.154 68.2773L160.856 68.2773L160.856 0L185.256 0L218.302 46.8236L218.302 0L236.599 0L236.599 68.2773L212.839 68.2773ZM158.585 97.7377C155.187 92.3999 150.453 88.2379 144.382 85.2651C138.311 82.2922 131.212 80.8036 123.08 80.8036C114.949 80.8036 107.925 82.2922 101.823 85.2651C97.3449 87.4485 93.602 90.2709 90.5945 93.7323C89.5071 94.9839 88.5158 96.319 87.6207 97.7377C84.2499 103.08 82.569 109.298 82.569 116.402C82.569 123.505 84.2544 129.724 87.6207 135.066C90.9869 140.408 95.7211 144.566 101.823 147.539C107.925 150.511 115.011 152 123.08 152C131.15 152 138.316 150.511 144.382 147.539C150.449 144.566 155.183 140.408 158.585 135.066C161.982 129.728 163.681 123.505 163.681 116.402C163.681 109.298 161.982 103.08 158.585 97.7377ZM66.319 115.99C65.0002 115.418 63.5428 114.949 61.9513 114.582C62.5235 114.31 63.0779 114.028 63.5875 113.715C66.5335 111.927 68.6704 109.723 70.0071 107.117C71.3393 104.506 72.0099 101.779 72.0099 98.9222C72.0099 93.7052 70.2485 89.6237 66.7302 86.6776C63.2075 83.7361 58.2945 82.2608 51.9822 82.2608L3.36594 82.2608L8.64556 115.49L3.36594 150.538L53.8017 150.538C58.8399 150.538 63.0421 149.702 66.4084 148.035C69.7746 146.367 72.3094 144.092 74.0126 141.208C75.7114 138.325 76.5608 135.035 76.5608 131.329C76.5608 127.868 75.7114 124.82 74.0126 122.182C72.3094 119.54 69.7478 117.479 66.319 115.99ZM212.521 115.061L241.337 150.538L218.127 150.538L200.638 127.94L183.074 150.538L160.132 150.538L189.181 115.056L162.139 82.2608L185.716 82.2608L201.068 102.083L216.213 82.2608L239.424 82.2608L212.521 115.061ZM50.8869 97.2369C52.161 98.4215 52.8003 99.9236 52.8003 101.743C52.8003 103.987 52.0582 105.762 50.5695 107.067C49.0809 108.373 47.248 109.025 45.0619 109.025L25.6333 109.025L23.4517 95.4621L45.4285 95.4621C47.7934 95.4621 49.6173 96.0522 50.8914 97.2369L50.8869 97.2369ZM141.973 126.416C140.242 129.21 137.77 131.364 134.552 132.88C131.333 134.4 127.511 135.155 123.08 135.155C118.65 135.155 114.917 134.395 111.703 132.88C108.484 131.364 105.994 129.21 104.237 126.416C102.476 123.626 101.595 120.287 101.595 116.402C101.595 112.517 102.476 109.178 104.237 106.388C105.994 103.598 108.484 101.444 111.703 99.9237C114.917 98.4082 118.713 97.6482 123.08 97.6482C127.448 97.6482 131.333 98.4082 134.552 99.9237C137.766 101.444 140.242 103.598 141.973 106.388C143.703 109.182 144.565 112.521 144.565 116.402C144.565 120.282 143.703 123.626 141.973 126.416ZM55.0758 135.334C53.5603 136.671 51.4368 137.337 48.7009 137.337L23.3623 137.337L25.6914 121.95L47.6101 121.95C50.8243 121.95 53.2563 122.665 54.8925 124.086C56.5331 125.513 57.3512 127.408 57.3512 129.777C57.3512 132.147 56.5912 133.997 55.0758 135.33L55.0758 135.334Z" fill="rgb(255,255,255)" fill-rule="evenodd" />
</svg>
