<svg viewBox="0 0 366.474 100.688" xmlns="http://www.w3.org/2000/svg" xmlns:xlink="http://www.w3.org/1999/xlink" width="366.473633" height="100.687988" fill="none" customFrame="#000000">
	<path id="WIN BOX закрыт на ремонтные работы, но скоро здесь вновь будет много спорта!" d="M149.123 37C150.851 37 152.131 37.4267 152.963 38.28C153.795 39.1333 154.211 40.2 154.211 41.48C154.211 41.9493 154.168 42.3653 154.083 42.728L149.763 43.464C149.784 43.3573 149.795 43.2613 149.795 43.176C149.816 43.0694 149.827 42.9627 149.827 42.856C149.827 42.3653 149.72 41.96 149.507 41.64C149.294 41.32 148.995 41.16 148.611 41.16C148.312 41.16 148.067 41.224 147.875 41.352C147.683 41.4587 147.512 41.5973 147.363 41.768C147.235 41.9387 147.128 42.1307 147.043 42.344C146.979 42.536 146.936 42.7067 146.915 42.856L144.707 54.216C144.686 54.3013 144.675 54.4293 144.675 54.6C144.675 54.8347 144.739 55.048 144.867 55.24C145.016 55.4107 145.315 55.496 145.763 55.496C146.68 55.496 147.32 54.728 147.683 53.192L151.875 53.768C151.747 54.6427 151.523 55.4427 151.203 56.168C150.904 56.872 150.499 57.4907 149.987 58.024C149.475 58.536 148.846 58.9413 148.099 59.24C147.374 59.5173 146.51 59.656 145.507 59.656C143.8 59.656 142.51 59.2827 141.635 58.536C140.76 57.7893 140.323 56.712 140.323 55.304C140.323 54.8773 140.376 54.3653 140.483 53.768L142.595 42.856C142.766 41.9813 143.011 41.1814 143.331 40.456C143.651 39.7307 144.067 39.112 144.579 38.6C145.091 38.088 145.72 37.6933 146.467 37.416C147.214 37.1387 148.099 37 149.123 37ZM153.179 59.464L157.499 37.16L161.755 37.16L159.963 46.312L160.411 46.312C160.902 46.312 161.339 46.0667 161.723 45.576C162.129 45.064 162.513 44.3493 162.875 43.432L165.211 37.256L169.467 37.256L166.843 44.04C166.417 45.128 165.883 45.992 165.243 46.632C164.603 47.272 163.953 47.7094 163.291 47.944C164.038 48.2427 164.593 48.6907 164.955 49.288C165.339 49.864 165.531 50.696 165.531 51.784L165.531 59.464L161.467 59.464L161.531 53.096C161.553 52.2427 161.446 51.5387 161.211 50.984C160.998 50.4293 160.529 50.152 159.803 50.152L159.227 50.152L157.435 59.464L153.179 59.464ZM176.357 41.32C175.994 41.32 175.685 41.4267 175.429 41.64C175.173 41.8533 174.991 42.2053 174.885 42.696L172.773 53.64C172.751 53.7467 172.73 53.8427 172.709 53.928C172.709 53.992 172.709 54.0667 172.709 54.152C172.709 54.9413 173.082 55.336 173.829 55.336C174.191 55.336 174.501 55.24 174.757 55.048C175.013 54.8347 175.194 54.472 175.301 53.96L177.413 43.08C177.455 42.9734 177.477 42.8773 177.477 42.792C177.477 42.6853 177.477 42.5787 177.477 42.472C177.477 42.0667 177.37 41.7787 177.157 41.608C176.943 41.416 176.677 41.32 176.357 41.32ZM176.613 37C178.213 37 179.493 37.4053 180.453 38.216C181.413 39.0267 181.893 40.2 181.893 41.736C181.893 42.2907 181.829 42.8667 181.701 43.464L179.717 54.024C179.397 55.7733 178.757 57.1493 177.797 58.152C176.837 59.1547 175.418 59.656 173.541 59.656C171.855 59.656 170.565 59.2187 169.669 58.344C168.794 57.4693 168.357 56.3067 168.357 54.856C168.357 54.6213 168.367 54.376 168.389 54.12C168.431 53.864 168.474 53.608 168.517 53.352L170.565 42.6C170.757 41.64 171.002 40.8187 171.301 40.136C171.621 39.432 172.015 38.8453 172.485 38.376C172.975 37.9067 173.551 37.5653 174.213 37.352C174.895 37.1173 175.695 37 176.613 37ZM191.023 37.192C191.833 37.192 192.569 37.2773 193.231 37.448C193.892 37.6187 194.457 37.9067 194.927 38.312C195.396 38.696 195.759 39.2293 196.015 39.912C196.271 40.5733 196.399 41.3947 196.399 42.376C196.399 45.2773 195.705 47.496 194.319 49.032C192.932 50.5467 191.055 51.304 188.687 51.304L187.663 51.304L186.095 59.464L181.743 59.464L186.063 37.192L191.023 37.192ZM189.615 41.352L188.495 47.112L189.231 47.112C189.508 47.112 189.817 47.0694 190.159 46.984C190.5 46.8773 190.82 46.696 191.119 46.44C191.417 46.1627 191.663 45.7787 191.855 45.288C192.047 44.7973 192.143 44.1573 192.143 43.368C192.143 42.6213 191.972 42.0987 191.631 41.8C191.311 41.5014 190.863 41.352 190.287 41.352L189.615 41.352ZM204.294 41.32C203.931 41.32 203.622 41.4267 203.366 41.64C203.11 41.8533 202.929 42.2053 202.822 42.696L200.71 53.64C200.689 53.7467 200.667 53.8427 200.646 53.928C200.646 53.992 200.646 54.0667 200.646 54.152C200.646 54.9413 201.019 55.336 201.766 55.336C202.129 55.336 202.438 55.24 202.694 55.048C202.95 54.8347 203.131 54.472 203.238 53.96L205.35 43.08C205.393 42.9734 205.414 42.8773 205.414 42.792C205.414 42.6853 205.414 42.5787 205.414 42.472C205.414 42.0667 205.307 41.7787 205.094 41.608C204.881 41.416 204.614 41.32 204.294 41.32ZM204.55 37C206.15 37 207.43 37.4053 208.39 38.216C209.35 39.0267 209.83 40.2 209.83 41.736C209.83 42.2907 209.766 42.8667 209.638 43.464L207.654 54.024C207.334 55.7733 206.694 57.1493 205.734 58.152C204.774 59.1547 203.355 59.656 201.478 59.656C199.793 59.656 198.502 59.2187 197.606 58.344C196.731 57.4693 196.294 56.3067 196.294 54.856C196.294 54.6213 196.305 54.376 196.326 54.12C196.369 53.864 196.411 53.608 196.454 53.352L198.502 42.6C198.694 41.64 198.939 40.8187 199.238 40.136C199.558 39.432 199.953 38.8453 200.422 38.376C200.913 37.9067 201.489 37.5653 202.15 37.352C202.833 37.1173 203.633 37 204.55 37ZM224.971 37C226.592 37 227.83 37.4373 228.683 38.312C229.558 39.1653 229.995 40.2853 229.995 41.672C229.995 42.2907 229.952 42.9093 229.867 43.528C229.803 44.1467 229.654 44.7333 229.419 45.288C229.206 45.8427 228.907 46.3547 228.523 46.824C228.139 47.272 227.648 47.6347 227.051 47.912L227.051 47.976C227.478 48.2107 227.798 48.5733 228.011 49.064C228.224 49.5547 228.331 50.152 228.331 50.856C228.331 53.6507 227.691 55.816 226.411 57.352C225.131 58.888 223.36 59.656 221.099 59.656C219.499 59.656 218.283 59.2613 217.451 58.472C216.64 57.6614 216.235 56.584 216.235 55.24C216.235 54.8773 216.267 54.4827 216.331 54.056L220.811 53.192C220.79 53.3414 220.768 53.4907 220.747 53.64C220.747 53.768 220.747 53.8853 220.747 53.992C220.747 54.4827 220.832 54.8347 221.003 55.048C221.195 55.24 221.472 55.336 221.835 55.336C222.176 55.336 222.475 55.2187 222.731 54.984C222.987 54.728 223.19 54.408 223.339 54.024C223.51 53.6187 223.627 53.1707 223.691 52.68C223.776 52.1894 223.819 51.6987 223.819 51.208C223.819 50.6107 223.691 50.2267 223.435 50.056C223.179 49.864 222.838 49.768 222.411 49.768L221.515 49.768L222.219 46.12L223.499 46.12C224.118 46.12 224.608 45.8107 224.971 45.192C225.334 44.552 225.515 43.752 225.515 42.792C225.515 42.4507 225.44 42.12 225.291 41.8C225.142 41.48 224.854 41.32 224.427 41.32C223.958 41.32 223.552 41.512 223.211 41.896C222.891 42.28 222.656 42.8027 222.507 43.464L218.411 42.536C218.838 40.744 219.595 39.3787 220.683 38.44C221.792 37.48 223.222 37 224.971 37ZM231.513 59.464L230.681 63.688L227.193 63.688L228.697 55.72L230.105 55.368C230.489 55.112 230.809 54.8453 231.065 54.568C231.321 54.2693 231.534 53.9493 231.705 53.608C231.897 53.2453 232.057 52.8507 232.185 52.424C232.313 51.976 232.441 51.4747 232.569 50.92L235.705 37.192L246.233 37.192L242.681 55.304L244.345 55.304L242.745 63.688L239.225 63.688L240.057 59.464L231.513 59.464ZM236.441 50.6C236.228 51.56 235.972 52.4667 235.673 53.32C235.396 54.152 235.065 54.8133 234.681 55.304L238.521 55.304L241.273 41.352L238.553 41.352L236.441 50.6ZM246.149 59.464L250.469 37.192L260.677 37.192L259.877 41.352L254.021 41.352L253.093 46.024L258.213 46.024L257.381 50.28L252.261 50.28L251.333 55.304L257.189 55.304L256.357 59.464L246.149 59.464ZM268.311 37C270.039 37 271.319 37.4267 272.151 38.28C272.983 39.1333 273.399 40.2 273.399 41.48C273.399 41.9493 273.356 42.3653 273.271 42.728L268.951 43.464C268.972 43.3573 268.983 43.2613 268.983 43.176C269.004 43.0694 269.015 42.9627 269.015 42.856C269.015 42.3653 268.908 41.96 268.695 41.64C268.481 41.32 268.183 41.16 267.799 41.16C267.5 41.16 267.255 41.224 267.063 41.352C266.871 41.4587 266.7 41.5973 266.551 41.768C266.423 41.9387 266.316 42.1307 266.231 42.344C266.167 42.536 266.124 42.7067 266.103 42.856L263.895 54.216C263.873 54.3013 263.863 54.4293 263.863 54.6C263.863 54.8347 263.927 55.048 264.055 55.24C264.204 55.4107 264.503 55.496 264.951 55.496C265.868 55.496 266.508 54.728 266.871 53.192L271.063 53.768C270.935 54.6427 270.711 55.4427 270.391 56.168C270.092 56.872 269.687 57.4907 269.175 58.024C268.663 58.536 268.033 58.9413 267.287 59.24C266.561 59.5173 265.697 59.656 264.695 59.656C262.988 59.656 261.697 59.2827 260.823 58.536C259.948 57.7893 259.511 56.712 259.511 55.304C259.511 54.8773 259.564 54.3653 259.671 53.768L261.783 42.856C261.953 41.9813 262.199 41.1814 262.519 40.456C262.839 39.7307 263.255 39.112 263.767 38.6C264.279 38.088 264.908 37.6933 265.655 37.416C266.401 37.1387 267.287 37 268.311 37ZM272.399 59.464L276.719 37.192L281.071 37.192L279.471 45.352L279.983 45.352C280.9 45.352 281.7 45.48 282.383 45.736C283.087 45.9707 283.674 46.312 284.143 46.76C284.612 47.1867 284.964 47.6987 285.199 48.296C285.455 48.872 285.583 49.5014 285.583 50.184C285.583 51.592 285.402 52.872 285.039 54.024C284.676 55.176 284.164 56.1573 283.503 56.968C282.842 57.7574 282.052 58.376 281.135 58.824C280.218 59.2507 279.204 59.464 278.095 59.464L272.399 59.464ZM278.351 55.304C278.692 55.304 279.034 55.2187 279.375 55.048C279.738 54.856 280.047 54.6 280.303 54.28C280.58 53.9387 280.804 53.5227 280.975 53.032C281.146 52.52 281.231 51.944 281.231 51.304C281.231 50.536 281.039 50.056 280.655 49.864C280.292 49.6507 279.876 49.544 279.407 49.544L278.671 49.544L277.551 55.304L278.351 55.304ZM300.833 41.352L299.969 45.768L300.513 45.768C301.281 45.768 301.868 45.5014 302.273 44.968C302.7 44.4347 302.913 43.7094 302.913 42.792C302.913 42.1947 302.775 41.8107 302.497 41.64C302.22 41.448 301.815 41.352 301.281 41.352L300.833 41.352ZM299.169 49.8L298.049 55.368L298.817 55.368C299.244 55.368 299.617 55.272 299.937 55.08C300.257 54.8667 300.524 54.5893 300.737 54.248C300.972 53.8853 301.143 53.48 301.249 53.032C301.356 52.584 301.409 52.104 301.409 51.592C301.409 50.952 301.249 50.4933 300.929 50.216C300.631 49.9387 300.279 49.8 299.873 49.8L299.169 49.8ZM303.745 47.816C304.471 48.072 304.961 48.488 305.217 49.064C305.495 49.64 305.633 50.3013 305.633 51.048C305.633 52.3067 305.473 53.4587 305.153 54.504C304.833 55.528 304.375 56.4133 303.777 57.16C303.18 57.8853 302.455 58.4507 301.601 58.856C300.748 59.2613 299.788 59.464 298.721 59.464L292.961 59.464L297.281 37.192L301.985 37.192C305.441 37.192 307.169 38.7493 307.169 41.864C307.169 43.5067 306.871 44.7973 306.273 45.736C305.697 46.6747 304.865 47.3147 303.777 47.656L303.745 47.816ZM314.379 59.464L316.139 50.248L313.355 50.248L311.595 59.464L307.243 59.464L311.563 37.192L315.915 37.192L314.187 46.024L316.971 46.024L318.699 37.192L323.019 37.192L318.699 59.464L314.379 59.464ZM330.794 41.32C330.431 41.32 330.122 41.4267 329.866 41.64C329.61 41.8533 329.429 42.2053 329.322 42.696L327.21 53.64C327.189 53.7467 327.167 53.8427 327.146 53.928C327.146 53.992 327.146 54.0667 327.146 54.152C327.146 54.9413 327.519 55.336 328.266 55.336C328.629 55.336 328.938 55.24 329.194 55.048C329.45 54.8347 329.631 54.472 329.738 53.96L331.85 43.08C331.893 42.9734 331.914 42.8773 331.914 42.792C331.914 42.6853 331.914 42.5787 331.914 42.472C331.914 42.0667 331.807 41.7787 331.594 41.608C331.381 41.416 331.114 41.32 330.794 41.32ZM331.05 37C332.65 37 333.93 37.4053 334.89 38.216C335.85 39.0267 336.33 40.2 336.33 41.736C336.33 42.2907 336.266 42.8667 336.138 43.464L334.154 54.024C333.834 55.7733 333.194 57.1493 332.234 58.152C331.274 59.1547 329.855 59.656 327.978 59.656C326.293 59.656 325.002 59.2187 324.106 58.344C323.231 57.4693 322.794 56.3067 322.794 54.856C322.794 54.6213 322.805 54.376 322.826 54.12C322.869 53.864 322.911 53.608 322.954 53.352L325.002 42.6C325.194 41.64 325.439 40.8187 325.738 40.136C326.058 39.432 326.453 38.8453 326.922 38.376C327.413 37.9067 327.989 37.5653 328.65 37.352C329.333 37.1173 330.133 37 331.05 37ZM344.052 41.352L343.188 45.768L343.732 45.768C344.5 45.768 345.087 45.5014 345.492 44.968C345.919 44.4347 346.132 43.7094 346.132 42.792C346.132 42.1947 345.993 41.8107 345.716 41.64C345.439 41.448 345.033 41.352 344.5 41.352L344.052 41.352ZM342.388 49.8L341.268 55.368L342.036 55.368C342.463 55.368 342.836 55.272 343.156 55.08C343.476 54.8667 343.743 54.5893 343.956 54.248C344.191 53.8853 344.361 53.48 344.468 53.032C344.575 52.584 344.628 52.104 344.628 51.592C344.628 50.952 344.468 50.4933 344.148 50.216C343.849 49.9387 343.497 49.8 343.092 49.8L342.388 49.8ZM346.964 47.816C347.689 48.072 348.18 48.488 348.436 49.064C348.713 49.64 348.852 50.3013 348.852 51.048C348.852 52.3067 348.692 53.4587 348.372 54.504C348.052 55.528 347.593 56.4133 346.996 57.16C346.399 57.8853 345.673 58.4507 344.82 58.856C343.967 59.2613 343.007 59.464 341.94 59.464L336.18 59.464L340.5 37.192L345.204 37.192C348.66 37.192 350.388 38.7493 350.388 41.864C350.388 43.5067 350.089 44.7973 349.492 45.736C348.916 46.6747 348.084 47.3147 346.996 47.656L346.964 47.816ZM350.461 59.464L354.781 37.192L359.133 37.192L357.533 45.352L358.045 45.352C358.963 45.352 359.763 45.48 360.445 45.736C361.149 45.9707 361.736 46.312 362.205 46.76C362.675 47.1867 363.027 47.6987 363.261 48.296C363.517 48.872 363.645 49.5014 363.645 50.184C363.645 51.592 363.464 52.872 363.101 54.024C362.739 55.176 362.227 56.1573 361.565 56.968C360.904 57.7574 360.115 58.376 359.197 58.824C358.28 59.2507 357.267 59.464 356.157 59.464L350.461 59.464ZM356.413 55.304C356.755 55.304 357.096 55.2187 357.437 55.048C357.8 54.856 358.109 54.6 358.365 54.28C358.643 53.9387 358.867 53.5227 359.037 53.032C359.208 52.52 359.293 51.944 359.293 51.304C359.293 50.536 359.101 50.056 358.717 49.864C358.355 49.6507 357.939 49.544 357.469 49.544L356.733 49.544L355.613 55.304L356.413 55.304ZM61.5864 96.464L65.9064 74.192L75.5704 74.192L74.7704 78.352L69.4584 78.352L68.6584 82.352L69.7144 82.352C71.4637 82.352 72.7437 82.736 73.5544 83.504C74.365 84.272 74.7704 85.4134 74.7704 86.928C74.7704 88.2294 74.589 89.4667 74.2264 90.64C73.885 91.792 73.3944 92.8054 72.7544 93.68C72.1144 94.5334 71.3357 95.216 70.4184 95.728C69.5224 96.2187 68.509 96.464 67.3784 96.464L61.5864 96.464ZM67.6344 92.304C68.3384 92.304 68.9784 91.9734 69.5544 91.312C70.1304 90.6507 70.4184 89.6267 70.4184 88.24C70.4184 87.856 70.365 87.5574 70.2584 87.344C70.1517 87.1094 70.013 86.9387 69.8424 86.832C69.6717 86.704 69.469 86.6293 69.2344 86.608C69.021 86.5654 68.797 86.544 68.5624 86.544L67.8584 86.544L66.7384 92.304L67.6344 92.304ZM82.6979 84.848L86.7619 74.192L91.0499 74.192L83.3379 91.504C82.8045 92.6987 82.2819 93.6374 81.7699 94.32C81.2579 95.0027 80.7352 95.5254 80.2019 95.888C79.6899 96.2507 79.1672 96.4854 78.6339 96.592C78.1005 96.72 77.5459 96.7947 76.9699 96.816L75.6899 96.816L76.3939 93.296L76.7779 93.296C77.3539 93.296 77.8125 93.168 78.1539 92.912C78.5165 92.656 78.8472 92.2827 79.1459 91.792L79.5939 90.896L77.9939 74.224L82.0259 74.224L82.5379 84.848L82.6979 84.848ZM88.8881 96.464L88.0561 100.688L84.5681 100.688L86.0721 92.72L87.4801 92.368C87.8641 92.112 88.1841 91.8454 88.4401 91.568C88.6961 91.2694 88.9095 90.9494 89.0801 90.608C89.2721 90.2454 89.4321 89.8507 89.5601 89.424C89.6881 88.976 89.8161 88.4747 89.9441 87.92L93.0801 74.192L103.608 74.192L100.056 92.304L101.72 92.304L100.12 100.688L96.6001 100.688L97.4321 96.464L88.8881 96.464ZM93.8161 87.6C93.6028 88.56 93.3468 89.4667 93.0481 90.32C92.7708 91.152 92.4401 91.8134 92.0561 92.304L95.8961 92.304L98.6481 78.352L95.9281 78.352L93.8161 87.6ZM103.524 96.464L107.844 74.192L118.052 74.192L117.252 78.352L111.396 78.352L110.468 83.024L115.588 83.024L114.756 87.28L109.636 87.28L108.708 92.304L114.564 92.304L113.732 96.464L103.524 96.464ZM125.91 78.352L122.39 96.464L118.038 96.464L121.558 78.352L118.134 78.352L118.934 74.192L130.134 74.192L129.334 78.352L125.91 78.352ZM141.596 92.112L141.212 89.264L140.828 85.968L140.668 85.968L138.652 96.464L134.332 96.464L138.652 74.192L142.652 74.192L143.612 80.496L144.38 84.784L144.572 84.784L146.844 80.4L150.268 74.192L154.396 74.192L150.076 96.464L145.724 96.464L147.74 86.064L147.612 86.064L145.884 89.52L144.508 92.112L141.596 92.112ZM160.285 96.464L162.045 87.248L159.261 87.248L157.501 96.464L153.149 96.464L157.469 74.192L161.821 74.192L160.093 83.024L162.877 83.024L164.605 74.192L168.925 74.192L164.605 96.464L160.285 96.464ZM176.7 78.32C176.338 78.32 176.028 78.4267 175.772 78.64C175.516 78.8533 175.335 79.2054 175.228 79.696L173.116 90.64C173.095 90.7467 173.074 90.8427 173.052 90.928C173.052 90.992 173.052 91.0667 173.052 91.152C173.052 91.9414 173.426 92.336 174.172 92.336C174.535 92.336 174.844 92.24 175.1 92.048C175.356 91.8347 175.538 91.472 175.644 90.96L177.756 80.08C177.799 79.9734 177.82 79.8773 177.82 79.792C177.82 79.6853 177.82 79.5787 177.82 79.472C177.82 79.0667 177.714 78.7787 177.5 78.608C177.287 78.416 177.02 78.32 176.7 78.32ZM176.956 74C178.556 74 179.836 74.4053 180.796 75.216C181.756 76.0267 182.236 77.2 182.236 78.736C182.236 79.2907 182.172 79.8667 182.044 80.464L180.06 91.024C179.74 92.7734 179.1 94.1494 178.14 95.152C177.18 96.1547 175.762 96.656 173.884 96.656C172.199 96.656 170.908 96.2187 170.012 95.344C169.138 94.4694 168.7 93.3067 168.7 91.856C168.7 91.6214 168.711 91.376 168.732 91.12C168.775 90.864 168.818 90.608 168.86 90.352L170.908 79.6C171.1 78.64 171.346 77.8187 171.644 77.136C171.964 76.432 172.359 75.8454 172.828 75.376C173.319 74.9067 173.895 74.5654 174.556 74.352C175.239 74.1174 176.039 74 176.956 74ZM189.958 78.352L186.438 96.464L182.086 96.464L186.406 74.192L196.614 74.192L195.814 78.352L189.958 78.352ZM202.263 78.32C201.9 78.32 201.591 78.4267 201.335 78.64C201.079 78.8533 200.898 79.2054 200.791 79.696L198.679 90.64C198.658 90.7467 198.636 90.8427 198.615 90.928C198.615 90.992 198.615 91.0667 198.615 91.152C198.615 91.9414 198.988 92.336 199.735 92.336C200.098 92.336 200.407 92.24 200.663 92.048C200.919 91.8347 201.1 91.472 201.207 90.96L203.319 80.08C203.362 79.9734 203.383 79.8773 203.383 79.792C203.383 79.6853 203.383 79.5787 203.383 79.472C203.383 79.0667 203.276 78.7787 203.063 78.608C202.85 78.416 202.583 78.32 202.263 78.32ZM202.519 74C204.119 74 205.399 74.4053 206.359 75.216C207.319 76.0267 207.799 77.2 207.799 78.736C207.799 79.2907 207.735 79.8667 207.607 80.464L205.623 91.024C205.303 92.7734 204.663 94.1494 203.703 95.152C202.743 96.1547 201.324 96.656 199.447 96.656C197.762 96.656 196.471 96.2187 195.575 95.344C194.7 94.4694 194.263 93.3067 194.263 91.856C194.263 91.6214 194.274 91.376 194.295 91.12C194.338 90.864 194.38 90.608 194.423 90.352L196.471 79.6C196.663 78.64 196.908 77.8187 197.207 77.136C197.527 76.432 197.922 75.8454 198.391 75.376C198.882 74.9067 199.458 74.5654 200.119 74.352C200.802 74.1174 201.602 74 202.519 74ZM224.092 74C225.82 74 227.1 74.4267 227.932 75.28C228.764 76.1334 229.18 77.2 229.18 78.48C229.18 78.9494 229.137 79.3654 229.052 79.728L224.732 80.464C224.753 80.3574 224.764 80.2614 224.764 80.176C224.785 80.0694 224.796 79.9627 224.796 79.856C224.796 79.3653 224.689 78.96 224.476 78.64C224.263 78.32 223.964 78.16 223.58 78.16C223.281 78.16 223.036 78.224 222.844 78.352C222.652 78.4587 222.481 78.5974 222.332 78.768C222.204 78.9387 222.097 79.1307 222.012 79.344C221.948 79.536 221.905 79.7067 221.884 79.856L219.676 91.216C219.655 91.3014 219.644 91.4294 219.644 91.6C219.644 91.8347 219.708 92.048 219.836 92.24C219.985 92.4107 220.284 92.496 220.732 92.496C221.649 92.496 222.289 91.728 222.652 90.192L226.844 90.768C226.716 91.6427 226.492 92.4427 226.172 93.168C225.873 93.872 225.468 94.4907 224.956 95.024C224.444 95.536 223.815 95.9414 223.068 96.24C222.343 96.5174 221.479 96.656 220.476 96.656C218.769 96.656 217.479 96.2827 216.604 95.536C215.729 94.7894 215.292 93.712 215.292 92.304C215.292 91.8773 215.345 91.3654 215.452 90.768L217.564 79.856C217.735 78.9814 217.98 78.1814 218.3 77.456C218.62 76.7307 219.036 76.112 219.548 75.6C220.06 75.088 220.689 74.6934 221.436 74.416C222.183 74.1387 223.068 74 224.092 74ZM234.836 96.464L238.324 78.448L236.02 78.448L232.532 96.464L228.18 96.464L232.5 74.192L243.476 74.192L239.156 96.464L234.836 96.464ZM251.325 78.32C250.963 78.32 250.653 78.4267 250.397 78.64C250.141 78.8533 249.96 79.2054 249.853 79.696L247.741 90.64C247.72 90.7467 247.699 90.8427 247.677 90.928C247.677 90.992 247.677 91.0667 247.677 91.152C247.677 91.9414 248.051 92.336 248.797 92.336C249.16 92.336 249.469 92.24 249.725 92.048C249.981 91.8347 250.163 91.472 250.269 90.96L252.381 80.08C252.424 79.9734 252.445 79.8773 252.445 79.792C252.445 79.6853 252.445 79.5787 252.445 79.472C252.445 79.0667 252.339 78.7787 252.125 78.608C251.912 78.416 251.645 78.32 251.325 78.32ZM251.581 74C253.181 74 254.461 74.4053 255.421 75.216C256.381 76.0267 256.861 77.2 256.861 78.736C256.861 79.2907 256.797 79.8667 256.669 80.464L254.685 91.024C254.365 92.7734 253.725 94.1494 252.765 95.152C251.805 96.1547 250.387 96.656 248.509 96.656C246.824 96.656 245.533 96.2187 244.637 95.344C243.763 94.4694 243.325 93.3067 243.325 91.856C243.325 91.6214 243.336 91.376 243.357 91.12C243.4 90.864 243.443 90.608 243.485 90.352L245.533 79.6C245.725 78.64 245.971 77.8187 246.269 77.136C246.589 76.432 246.984 75.8454 247.453 75.376C247.944 74.9067 248.52 74.5654 249.181 74.352C249.864 74.1174 250.664 74 251.581 74ZM265.991 74.192C266.802 74.192 267.538 74.2774 268.199 74.448C268.861 74.6187 269.426 74.9067 269.895 75.312C270.365 75.696 270.727 76.2294 270.983 76.912C271.239 77.5733 271.367 78.3947 271.367 79.376C271.367 82.2774 270.674 84.496 269.287 86.032C267.901 87.5467 266.023 88.304 263.655 88.304L262.631 88.304L261.063 96.464L256.711 96.464L261.031 74.192L265.991 74.192ZM264.583 78.352L263.463 84.112L264.199 84.112C264.477 84.112 264.786 84.0694 265.127 83.984C265.469 83.8773 265.789 83.696 266.087 83.44C266.386 83.1627 266.631 82.7787 266.823 82.288C267.015 81.7974 267.111 81.1573 267.111 80.368C267.111 79.6214 266.941 79.0987 266.599 78.8C266.279 78.5014 265.831 78.352 265.255 78.352L264.583 78.352ZM280.191 78.352L276.671 96.464L272.319 96.464L275.839 78.352L272.415 78.352L273.215 74.192L284.415 74.192L283.615 78.352L280.191 78.352ZM289.994 92.112L286.73 92.112L285.226 96.464L280.586 96.464L289.13 74.192L294.442 74.192L294.378 96.464L289.834 96.464L289.994 92.112ZM289.258 84.464L288.138 88.016L290.154 88.016L290.41 84.464L290.826 79.952L290.634 79.952L289.258 84.464ZM302.129 89.968L298.513 89.968L301.265 74.192L305.521 74.192L302.129 89.968ZM297.041 96.464L297.905 92.016L302.001 92.016L301.137 96.464L297.041 96.464Z" fill="rgb(255,106,19)" fill-rule="nonzero" />
	<path id="WIN BOX закрыт на ремонтные работы, но скоро здесь вновь будет много спорта!" d="M12.8845 11.872C12.6712 12.512 12.4792 13.0773 12.3085 13.568C12.1378 14.0587 11.9778 14.5173 11.8285 14.944C11.7005 15.3493 11.5618 15.744 11.4125 16.128C11.2632 16.512 11.1032 16.928 10.9325 17.376L8.9165 22.464L4.2445 22.464L5.4285 0.192015L10.1325 0.192015L9.6205 6.11201C9.51383 7.28535 9.3965 8.41601 9.2685 9.50401C9.1405 10.5707 9.0125 11.6053 8.8845 12.608L9.0445 12.608L11.0925 6.84801L13.4285 0.192015L16.8845 0.192015L16.6925 6.65602C16.6712 7.16802 16.6498 7.65868 16.6285 8.12802C16.6072 8.57602 16.5858 9.04535 16.5645 9.53602C16.5432 10.0053 16.5112 10.5067 16.4685 11.04C16.4472 11.5733 16.4258 12.1707 16.4045 12.832L16.5965 12.832L18.2605 6.65602L20.0205 0.192015L24.9805 0.192015L17.5245 22.464L12.8525 22.464L12.9485 17.984L13.0765 11.872L12.8845 11.872ZM22.416 22.464L26.736 0.192015L31.088 0.192015L26.768 22.464L22.416 22.464ZM40.214 12.64L42.422 0.192015L46.678 0.192015L42.358 22.464L38.646 22.464L37.334 15.424L36.63 11.2L36.47 11.2L34.326 22.464L30.006 22.464L34.326 0.192015L38.134 0.192015L39.318 7.10402C39.382 7.44535 39.446 7.86135 39.51 8.35202C39.5953 8.82135 39.67 9.32268 39.734 9.85602C39.798 10.368 39.862 10.8693 39.926 11.36C39.99 11.8507 40.0327 12.2773 40.054 12.64L40.214 12.64ZM60.2552 4.35201L59.3913 8.76801L59.9352 8.76801C60.7033 8.76801 61.2899 8.50135 61.6953 7.96802C62.1219 7.43468 62.3353 6.70935 62.3353 5.79202C62.3353 5.19468 62.1966 4.81068 61.9193 4.64001C61.6419 4.44802 61.2366 4.35201 60.7033 4.35201L60.2552 4.35201ZM58.5913 12.8L57.4712 18.368L58.2393 18.368C58.6659 18.368 59.0392 18.272 59.3592 18.08C59.6793 17.8667 59.9459 17.5893 60.1592 17.248C60.3939 16.8853 60.5646 16.48 60.6712 16.032C60.7779 15.584 60.8312 15.104 60.8312 14.592C60.8312 13.952 60.6712 13.4933 60.3512 13.216C60.0526 12.9387 59.7006 12.8 59.2952 12.8L58.5913 12.8ZM63.1673 10.816C63.8926 11.072 64.3833 11.488 64.6393 12.064C64.9166 12.64 65.0553 13.3013 65.0553 14.048C65.0553 15.3067 64.8952 16.4587 64.5752 17.504C64.2552 18.528 63.7966 19.4133 63.1992 20.16C62.6019 20.8853 61.8766 21.4507 61.0233 21.856C60.1699 22.2613 59.2099 22.464 58.1432 22.464L52.3833 22.464L56.7033 0.192015L61.4072 0.192015C64.8633 0.192015 66.5912 1.74935 66.5912 4.86402C66.5912 6.50668 66.2926 7.79735 65.6953 8.73602C65.1192 9.67468 64.2872 10.3147 63.1992 10.656L63.1673 10.816ZM74.6645 4.32001C74.3018 4.32001 73.9925 4.42668 73.7365 4.64001C73.4805 4.85335 73.2992 5.20535 73.1925 5.69601L71.0805 16.64C71.0592 16.7467 71.0378 16.8427 71.0165 16.928C71.0165 16.992 71.0165 17.0667 71.0165 17.152C71.0165 17.9413 71.3898 18.336 72.1365 18.336C72.4992 18.336 72.8085 18.24 73.0645 18.048C73.3205 17.8347 73.5018 17.472 73.6085 16.96L75.7205 6.08002C75.7632 5.97335 75.7845 5.87735 75.7845 5.79202C75.7845 5.68535 75.7845 5.57868 75.7845 5.47202C75.7845 5.06668 75.6778 4.77868 75.4645 4.60802C75.2512 4.41602 74.9845 4.32001 74.6645 4.32001ZM74.9205 1.52588e-05C76.5205 1.52588e-05 77.8005 0.405348 78.7605 1.21601C79.7205 2.02668 80.2005 3.20001 80.2005 4.73602C80.2005 5.29068 80.1365 5.86668 80.0085 6.46402L78.0245 17.024C77.7045 18.7733 77.0645 20.1493 76.1045 21.152C75.1445 22.1547 73.7258 22.656 71.8485 22.656C70.1632 22.656 68.8725 22.2187 67.9765 21.344C67.1018 20.4693 66.6645 19.3067 66.6645 17.856C66.6645 17.6213 66.6752 17.376 66.6965 17.12C66.7392 16.864 66.7818 16.608 66.8245 16.352L68.8725 5.60002C69.0645 4.64001 69.3098 3.81868 69.6085 3.13601C69.9285 2.43201 70.3232 1.84535 70.7925 1.37601C71.2832 0.906681 71.8592 0.565348 72.5205 0.352015C73.2032 0.117348 74.0032 1.52588e-05 74.9205 1.52588e-05ZM87.0155 16.256L83.8795 22.464L78.5035 22.464L85.3515 10.848L83.1435 0.192015L88.1035 0.192015L88.7115 5.37601L88.9035 5.37601L91.4635 0.192015L96.9035 0.192015L90.4075 10.848L92.9035 22.464L87.9115 22.464L87.1435 16.256L87.0155 16.256ZM109.737 1.52588e-05C111.358 1.52588e-05 112.595 0.437349 113.449 1.31202C114.323 2.16535 114.761 3.28535 114.761 4.67201C114.761 5.29068 114.718 5.90935 114.633 6.52802C114.569 7.14668 114.419 7.73335 114.185 8.28802C113.971 8.84268 113.673 9.35468 113.289 9.82402C112.905 10.272 112.414 10.6347 111.817 10.912L111.817 10.976C112.243 11.2107 112.563 11.5733 112.777 12.064C112.99 12.5547 113.097 13.152 113.097 13.856C113.097 16.6507 112.457 18.816 111.177 20.352C109.897 21.888 108.126 22.656 105.865 22.656C104.265 22.656 103.049 22.2613 102.217 21.472C101.406 20.6613 101.001 19.584 101.001 18.24C101.001 17.8773 101.033 17.4827 101.097 17.056L105.577 16.192C105.555 16.3413 105.534 16.4907 105.513 16.64C105.513 16.768 105.513 16.8853 105.513 16.992C105.513 17.4827 105.598 17.8347 105.769 18.048C105.961 18.24 106.238 18.336 106.601 18.336C106.942 18.336 107.241 18.2187 107.497 17.984C107.753 17.728 107.955 17.408 108.105 17.024C108.275 16.6187 108.393 16.1707 108.457 15.68C108.542 15.1893 108.585 14.6987 108.585 14.208C108.585 13.6107 108.457 13.2267 108.201 13.056C107.945 12.864 107.603 12.768 107.177 12.768L106.281 12.768L106.985 9.12002L108.265 9.12002C108.883 9.12002 109.374 8.81068 109.737 8.19202C110.099 7.55202 110.281 6.75202 110.281 5.79202C110.281 5.45068 110.206 5.12002 110.057 4.80001C109.907 4.48001 109.619 4.32001 109.193 4.32001C108.723 4.32001 108.318 4.51201 107.977 4.89602C107.657 5.28002 107.422 5.80268 107.273 6.46402L103.177 5.53601C103.603 3.74401 104.361 2.37868 105.449 1.44002C106.558 0.480015 107.987 1.52588e-05 109.737 1.52588e-05ZM122.135 18.112L118.871 18.112L117.367 22.464L112.727 22.464L121.271 0.192015L126.583 0.192015L126.519 22.464L121.975 22.464L122.135 18.112ZM121.399 10.464L120.279 14.016L122.295 14.016L122.551 10.464L122.967 5.95201L122.775 5.95201L121.399 10.464ZM128.414 22.464L132.734 0.160015L136.99 0.160015L135.198 9.31202L135.646 9.31202C136.136 9.31202 136.574 9.06668 136.958 8.57602C137.363 8.06402 137.747 7.34935 138.11 6.43201L140.446 0.256016L144.702 0.256016L142.078 7.04002C141.651 8.12802 141.118 8.99201 140.478 9.63202C139.838 10.272 139.187 10.7093 138.526 10.944C139.272 11.2427 139.827 11.6907 140.19 12.288C140.574 12.864 140.766 13.696 140.766 14.784L140.766 22.464L136.702 22.464L136.766 16.096C136.787 15.2427 136.68 14.5387 136.446 13.984C136.232 13.4293 135.763 13.152 135.038 13.152L134.462 13.152L132.67 22.464L128.414 22.464ZM152.007 0.192015C152.818 0.192015 153.554 0.277348 154.215 0.448015C154.876 0.618683 155.442 0.906683 155.911 1.31202C156.38 1.69602 156.743 2.22935 156.999 2.91202C157.255 3.57335 157.383 4.39468 157.383 5.37601C157.383 8.27735 156.69 10.496 155.303 12.032C153.916 13.5467 152.039 14.304 149.671 14.304L148.647 14.304L147.079 22.464L142.727 22.464L147.047 0.192015L152.007 0.192015ZM150.599 4.35201L149.479 10.112L150.215 10.112C150.492 10.112 150.802 10.0693 151.143 9.98402C151.484 9.87735 151.804 9.69602 152.103 9.44002C152.402 9.16268 152.647 8.77868 152.839 8.28802C153.031 7.79735 153.127 7.15735 153.127 6.36802C153.127 5.62135 152.956 5.09868 152.615 4.80001C152.295 4.50135 151.847 4.35201 151.271 4.35201L150.599 4.35201ZM169.406 22.464L173.727 0.192015L178.079 0.192015L173.758 22.464L169.406 22.464ZM156.415 22.464L160.734 0.192015L165.087 0.192015L163.486 8.35202L163.999 8.35202C164.916 8.35202 165.716 8.48002 166.398 8.73602C167.102 8.97068 167.689 9.31202 168.159 9.76002C168.628 10.1867 168.98 10.6987 169.215 11.296C169.471 11.872 169.598 12.5013 169.598 13.184C169.598 14.592 169.417 15.872 169.055 17.024C168.692 18.176 168.18 19.1573 167.518 19.968C166.857 20.7573 166.068 21.376 165.15 21.824C164.233 22.2507 163.22 22.464 162.111 22.464L156.415 22.464ZM162.367 18.304C162.708 18.304 163.049 18.2187 163.391 18.048C163.753 17.856 164.062 17.6 164.318 17.28C164.596 16.9387 164.82 16.5227 164.99 16.032C165.161 15.52 165.247 14.944 165.247 14.304C165.247 13.536 165.055 13.056 164.671 12.864C164.308 12.6507 163.892 12.544 163.423 12.544L162.686 12.544L161.566 18.304L162.367 18.304ZM186.769 4.35201L183.249 22.464L178.897 22.464L182.417 4.35201L178.993 4.35201L179.793 0.192015L190.993 0.192015L190.193 4.35201L186.769 4.35201ZM202.519 22.464L204.279 13.248L201.495 13.248L199.735 22.464L195.383 22.464L199.703 0.192015L204.055 0.192015L202.327 9.02402L205.111 9.02402L206.839 0.192015L211.159 0.192015L206.839 22.464L202.519 22.464ZM218.135 18.112L214.871 18.112L213.367 22.464L208.727 22.464L217.271 0.192015L222.583 0.192015L222.519 22.464L217.975 22.464L218.135 18.112ZM217.399 10.464L216.279 14.016L218.295 14.016L218.551 10.464L218.967 5.95201L218.775 5.95201L217.399 10.464ZM240.601 0.192015C241.411 0.192015 242.147 0.277348 242.809 0.448015C243.47 0.618683 244.035 0.906683 244.505 1.31202C244.974 1.69602 245.337 2.22935 245.593 2.91202C245.849 3.57335 245.977 4.39468 245.977 5.37601C245.977 8.27735 245.283 10.496 243.897 12.032C242.51 13.5467 240.633 14.304 238.265 14.304L237.241 14.304L235.673 22.464L231.321 22.464L235.641 0.192015L240.601 0.192015ZM239.193 4.35201L238.073 10.112L238.809 10.112C239.086 10.112 239.395 10.0693 239.737 9.98402C240.078 9.87735 240.398 9.69602 240.697 9.44002C240.995 9.16268 241.241 8.77868 241.433 8.28802C241.625 7.79735 241.721 7.15735 241.721 6.36802C241.721 5.62135 241.55 5.09868 241.209 4.80001C240.889 4.50135 240.441 4.35201 239.865 4.35201L239.193 4.35201ZM245.008 22.464L249.328 0.192015L259.536 0.192015L258.736 4.35201L252.88 4.35201L251.952 9.02402L257.072 9.02402L256.24 13.28L251.12 13.28L250.192 18.304L256.048 18.304L255.216 22.464L245.008 22.464ZM264.674 18.112L264.29 15.264L263.906 11.968L263.746 11.968L261.73 22.464L257.41 22.464L261.73 0.192015L265.73 0.192015L266.69 6.49602L267.458 10.784L267.65 10.784L269.922 6.40001L273.346 0.192015L277.474 0.192015L273.154 22.464L268.802 22.464L270.818 12.064L270.69 12.064L268.962 15.52L267.586 18.112L264.674 18.112ZM285.091 4.32001C284.728 4.32001 284.419 4.42668 284.163 4.64001C283.907 4.85335 283.726 5.20535 283.619 5.69601L281.507 16.64C281.486 16.7467 281.464 16.8427 281.443 16.928C281.443 16.992 281.443 17.0667 281.443 17.152C281.443 17.9413 281.816 18.336 282.563 18.336C282.926 18.336 283.235 18.24 283.491 18.048C283.747 17.8347 283.928 17.472 284.035 16.96L286.147 6.08002C286.19 5.97335 286.211 5.87735 286.211 5.79202C286.211 5.68535 286.211 5.57868 286.211 5.47202C286.211 5.06668 286.104 4.77868 285.891 4.60802C285.678 4.41602 285.411 4.32001 285.091 4.32001ZM285.347 1.52588e-05C286.947 1.52588e-05 288.227 0.405348 289.187 1.21601C290.147 2.02668 290.627 3.20001 290.627 4.73602C290.627 5.29068 290.563 5.86668 290.435 6.46402L288.451 17.024C288.131 18.7733 287.491 20.1493 286.531 21.152C285.571 22.1547 284.152 22.656 282.275 22.656C280.59 22.656 279.299 22.2187 278.403 21.344C277.528 20.4693 277.091 19.3067 277.091 17.856C277.091 17.6213 277.102 17.376 277.123 17.12C277.166 16.864 277.208 16.608 277.251 16.352L279.299 5.60002C279.491 4.64001 279.736 3.81868 280.035 3.13601C280.355 2.43201 280.75 1.84535 281.219 1.37601C281.71 0.906681 282.286 0.565348 282.947 0.352015C283.63 0.117348 284.43 1.52588e-05 285.347 1.52588e-05ZM297.613 22.464L299.373 13.248L296.589 13.248L294.829 22.464L290.477 22.464L294.797 0.192015L299.149 0.192015L297.421 9.02402L300.205 9.02402L301.933 0.192015L306.253 0.192015L301.933 22.464L297.613 22.464ZM314.957 4.35201L311.436 22.464L307.085 22.464L310.604 4.35201L307.181 4.35201L307.98 0.192015L319.181 0.192015L318.38 4.35201L314.957 4.35201ZM323.832 22.464L325.592 13.248L322.808 13.248L321.048 22.464L316.696 22.464L321.016 0.192015L325.368 0.192015L323.64 9.02402L326.424 9.02402L328.152 0.192015L332.472 0.192015L328.152 22.464L323.832 22.464ZM344.375 22.464L348.695 0.192015L353.047 0.192015L348.727 22.464L344.375 22.464ZM331.383 22.464L335.703 0.192015L340.055 0.192015L338.455 8.35202L338.967 8.35202C339.885 8.35202 340.685 8.48002 341.367 8.73602C342.071 8.97068 342.658 9.31202 343.127 9.76002C343.597 10.1867 343.949 10.6987 344.183 11.296C344.439 11.872 344.567 12.5013 344.567 13.184C344.567 14.592 344.386 15.872 344.023 17.024C343.661 18.176 343.149 19.1573 342.487 19.968C341.826 20.7573 341.037 21.376 340.119 21.824C339.202 22.2507 338.189 22.464 337.079 22.464L331.383 22.464ZM337.335 18.304C337.677 18.304 338.018 18.2187 338.359 18.048C338.722 17.856 339.031 17.6 339.287 17.28C339.565 16.9387 339.789 16.5227 339.959 16.032C340.13 15.52 340.215 14.944 340.215 14.304C340.215 13.536 340.023 13.056 339.639 12.864C339.277 12.6507 338.861 12.544 338.391 12.544L337.655 12.544L336.535 18.304L337.335 18.304ZM351.946 22.464L356.266 0.192015L366.474 0.192015L365.674 4.35201L359.818 4.35201L358.89 9.02402L364.01 9.02402L363.178 13.28L358.058 13.28L357.13 18.304L362.986 18.304L362.154 22.464L351.946 22.464ZM11.8351 37.192C12.6458 37.192 13.3818 37.2773 14.0431 37.448C14.7045 37.6187 15.2698 37.9067 15.7391 38.312C16.2085 38.696 16.5711 39.2293 16.8271 39.912C17.0831 40.5733 17.2111 41.3947 17.2111 42.376C17.2111 45.2773 16.5178 47.496 15.1311 49.032C13.7445 50.5467 11.8671 51.304 9.49913 51.304L8.47513 51.304L6.90712 59.464L2.55512 59.464L6.87513 37.192L11.8351 37.192ZM10.4271 41.352L9.30713 47.112L10.0431 47.112C10.3205 47.112 10.6298 47.0694 10.9711 46.984C11.3125 46.8773 11.6325 46.696 11.9311 46.44C12.2298 46.1627 12.4751 45.7787 12.6671 45.288C12.8591 44.7973 12.9551 44.1573 12.9551 43.368C12.9551 42.6213 12.7845 42.0987 12.4431 41.8C12.1231 41.5014 11.6751 41.352 11.0991 41.352L10.4271 41.352ZM23.0254 55.112L19.7614 55.112L18.2574 59.464L13.6174 59.464L22.1614 37.192L27.4734 37.192L27.4094 59.464L22.8654 59.464L23.0254 55.112ZM22.2894 47.464L21.1694 51.016L23.1854 51.016L23.4414 47.464L23.8574 42.952L23.6654 42.952L22.2894 47.464ZM29.3364 59.464L33.6564 37.192L43.3204 37.192L42.5204 41.352L37.2084 41.352L36.4084 45.352L37.4644 45.352C39.2137 45.352 40.4937 45.736 41.3044 46.504C42.115 47.272 42.5204 48.4133 42.5204 49.928C42.5204 51.2293 42.339 52.4667 41.9764 53.64C41.635 54.792 41.1444 55.8053 40.5044 56.68C39.8644 57.5333 39.0857 58.216 38.1684 58.728C37.2724 59.2187 36.259 59.464 35.1284 59.464L29.3364 59.464ZM35.3844 55.304C36.0884 55.304 36.7284 54.9734 37.3044 54.312C37.8804 53.6507 38.1684 52.6267 38.1684 51.24C38.1684 50.856 38.115 50.5574 38.0084 50.344C37.9017 50.1093 37.763 49.9387 37.5924 49.832C37.4217 49.704 37.219 49.6293 36.9844 49.608C36.771 49.5653 36.547 49.544 36.3124 49.544L35.6084 49.544L34.4884 55.304L35.3844 55.304ZM51.8879 41.32C51.5252 41.32 51.2159 41.4267 50.9599 41.64C50.7039 41.8533 50.5225 42.2053 50.4159 42.696L48.3039 53.64C48.2825 53.7467 48.2612 53.8427 48.2399 53.928C48.2399 53.992 48.2399 54.0667 48.2399 54.152C48.2399 54.9413 48.6132 55.336 49.3599 55.336C49.7225 55.336 50.0319 55.24 50.2879 55.048C50.5439 54.8347 50.7252 54.472 50.8319 53.96L52.9439 43.08C52.9865 42.9734 53.0079 42.8773 53.0079 42.792C53.0079 42.6853 53.0079 42.5787 53.0079 42.472C53.0079 42.0667 52.9012 41.7787 52.6879 41.608C52.4745 41.416 52.2079 41.32 51.8879 41.32ZM52.1439 37C53.7439 37 55.0239 37.4053 55.9839 38.216C56.9439 39.0267 57.4239 40.2 57.4239 41.736C57.4239 42.2907 57.3599 42.8667 57.2319 43.464L55.2479 54.024C54.9279 55.7733 54.2879 57.1493 53.3279 58.152C52.3679 59.1547 50.9492 59.656 49.0719 59.656C47.3865 59.656 46.0959 59.2187 45.1999 58.344C44.3252 57.4693 43.8879 56.3067 43.8879 54.856C43.8879 54.6213 43.8985 54.376 43.9199 54.12C43.9625 53.864 44.0052 53.608 44.0479 53.352L46.0959 42.6C46.2879 41.64 46.5332 40.8187 46.8319 40.136C47.1519 39.432 47.5465 38.8453 48.0159 38.376C48.5065 37.9067 49.0825 37.5653 49.7439 37.352C50.4265 37.1173 51.2265 37 52.1439 37ZM67.0659 41.352L63.5459 59.464L59.1939 59.464L62.7139 41.352L59.2899 41.352L60.0899 37.192L71.2899 37.192L70.4899 41.352L67.0659 41.352ZM81.7971 59.464L86.1171 37.192L90.4691 37.192L86.1491 59.464L81.7971 59.464ZM68.8051 59.464L73.1251 37.192L77.4771 37.192L75.8771 45.352L76.3891 45.352C77.3065 45.352 78.1065 45.48 78.7891 45.736C79.4931 45.9707 80.0798 46.312 80.5491 46.76C81.0185 47.1867 81.3705 47.6987 81.6051 48.296C81.8611 48.872 81.9891 49.5014 81.9891 50.184C81.9891 51.592 81.8078 52.872 81.4451 54.024C81.0825 55.176 80.5705 56.1573 79.9091 56.968C79.2478 57.7574 78.4585 58.376 77.5411 58.824C76.6238 59.2507 75.6105 59.464 74.5011 59.464L68.8051 59.464ZM74.7571 55.304C75.0985 55.304 75.4398 55.2187 75.7811 55.048C76.1438 54.856 76.4531 54.6 76.7091 54.28C76.9865 53.9387 77.2105 53.5227 77.3811 53.032C77.5518 52.52 77.6371 51.944 77.6371 51.304C77.6371 50.536 77.4451 50.056 77.0611 49.864C76.6985 49.6507 76.2825 49.544 75.8131 49.544L75.0771 49.544L73.9571 55.304L74.7571 55.304ZM90.7116 64.36L88.2796 64.36L90.2636 59.592L89.3356 59.592L90.2956 54.664L94.6476 54.664L93.6876 59.496L90.7116 64.36ZM110.879 59.464L112.639 50.248L109.855 50.248L108.095 59.464L103.743 59.464L108.063 37.192L112.415 37.192L110.687 46.024L113.471 46.024L115.199 37.192L119.519 37.192L115.199 59.464L110.879 59.464ZM127.294 41.32C126.931 41.32 126.622 41.4267 126.366 41.64C126.11 41.8533 125.929 42.2053 125.822 42.696L123.71 53.64C123.689 53.7467 123.667 53.8427 123.646 53.928C123.646 53.992 123.646 54.0667 123.646 54.152C123.646 54.9413 124.019 55.336 124.766 55.336C125.129 55.336 125.438 55.24 125.694 55.048C125.95 54.8347 126.131 54.472 126.238 53.96L128.35 43.08C128.393 42.9734 128.414 42.8773 128.414 42.792C128.414 42.6853 128.414 42.5787 128.414 42.472C128.414 42.0667 128.307 41.7787 128.094 41.608C127.881 41.416 127.614 41.32 127.294 41.32ZM127.55 37C129.15 37 130.43 37.4053 131.39 38.216C132.35 39.0267 132.83 40.2 132.83 41.736C132.83 42.2907 132.766 42.8667 132.638 43.464L130.654 54.024C130.334 55.7733 129.694 57.1493 128.734 58.152C127.774 59.1547 126.355 59.656 124.478 59.656C122.793 59.656 121.502 59.2187 120.606 58.344C119.731 57.4693 119.294 56.3067 119.294 54.856C119.294 54.6213 119.305 54.376 119.326 54.12C119.369 53.864 119.411 53.608 119.454 53.352L121.502 42.6C121.694 41.64 121.939 40.8187 122.238 40.136C122.558 39.432 122.953 38.8453 123.422 38.376C123.913 37.9067 124.489 37.5653 125.15 37.352C125.833 37.1173 126.633 37 127.55 37Z" fill="rgb(255,255,255)" fill-rule="nonzero" />
</svg>
