<svg viewBox="0 0 600 1216" xmlns="http://www.w3.org/2000/svg" xmlns:xlink="http://www.w3.org/1999/xlink" width="600.000000" height="1216.000000" fill="none">
	<rect id="mobile" width="600.000000" height="1216.000000" x="0.000000" y="0.000000" fill="rgb(20,20,25)" />
	<g id="Group">
		<path id="Vector" d="M54.2545 53.6044C73.3781 49.3447 92.4793 45.0851 111.603 40.8254C99.1602 69.1857 86.7176 97.5461 74.2749 125.884C74.813 125.794 75.082 125.772 75.5976 125.682C101.043 94.6091 126.265 63.3792 151.307 31.9698C165.88 28.719 180.475 25.4682 195.047 22.2174C182.672 52.5058 170.296 82.7718 157.921 113.06C158.459 112.97 158.706 112.948 159.244 112.858C184.555 79.8349 209.687 46.6768 234.617 13.4067C254.682 8.94528 274.748 4.46143 294.835 0C240.558 67.8182 185.362 134.896 128.955 200.966C113.935 202.177 98.9136 203.387 83.8927 204.62C95.8198 175.677 107.747 146.734 119.674 117.768C119.248 117.835 119.024 117.858 118.598 117.925C94.3401 148.034 69.8807 177.964 45.1972 207.737C30.1314 208.947 15.0657 210.18 0 211.391C18.0923 158.795 36.1846 106.2 54.2097 53.582L54.2545 53.6044Z" fill="rgb(255,106,19)" fill-rule="nonzero" transform="matrix(0.819662,0.572847,-0.572847,0.819662,-3.90454,735.759)" />
		<path id="Vector" d="M117.925 12.1064C136.04 8.07092 154.155 4.03546 172.269 0C132.161 69.253 91.8516 138.349 51.2728 207.311C34.1893 208.701 17.0835 210.068 0 211.458C39.5699 145.164 78.8708 78.6915 117.948 12.1064L117.925 12.1064Z" fill="rgb(255,106,19)" fill-rule="nonzero" transform="matrix(0.819662,0.572847,-0.572847,0.819662,163.251,833.437)" />
		<path id="Vector" d="M122.835 33.7409C137.721 30.4229 152.63 27.1048 167.516 23.7868C165.387 55.4427 163.033 87.0763 160.477 118.687C160.791 118.643 160.948 118.62 161.262 118.553C181.416 82.9736 201.504 47.3494 221.569 11.7252C239.101 7.8243 256.633 3.92336 274.165 0C230.627 78.1983 186.864 156.284 142.878 234.214C128.866 235.357 114.854 236.478 100.864 237.621C103.689 205.293 106.312 172.964 108.711 140.613C108.397 140.658 108.24 140.681 107.926 140.725C88.6008 174.422 69.253 208.095 49.8379 241.747C33.2253 243.092 16.6126 244.437 0 245.782C41.1841 175.229 82.1216 104.541 122.835 33.6961L122.835 33.7409Z" fill="rgb(255,106,19)" fill-rule="nonzero" transform="matrix(0.819662,0.572847,-0.572847,0.819662,253.909,846.79)" />
		<path id="Vector" d="M133.103 11.9719C151.016 7.98124 168.951 3.99062 186.864 0C153.773 60.3526 120.593 120.638 87.2781 180.856C105.729 178.614 124.18 176.372 142.631 174.13C130.188 196.886 117.723 219.641 105.258 242.397C70.1722 245.244 35.0861 248.091 0 250.916C44.5918 171.395 88.9371 91.7395 133.081 11.9719L133.103 11.9719Z" fill="rgb(255,106,19)" fill-rule="nonzero" transform="matrix(0.819662,0.572847,-0.572847,0.819662,406.994,930.426)" />
		<path id="Vector" d="M140.322 11.927C158.145 7.95883 175.991 3.99062 193.814 0C146.263 88.7129 98.5101 177.314 50.5553 265.825C33.6961 267.192 16.8593 268.56 0 269.927C46.9683 184.039 93.7347 98.0393 140.299 11.927L140.322 11.927Z" fill="rgb(255,106,19)" fill-rule="nonzero" transform="matrix(0.819662,0.572847,-0.572847,0.819662,524.385,977.131)" />
		<path id="Vector" d="M145.03 33.2029C159.692 29.9297 174.354 26.6789 189.017 23.4057C183.188 64.119 177.157 104.832 170.969 145.501C171.283 145.456 171.44 145.434 171.754 145.366C195.294 100.774 218.789 56.1602 242.24 11.5459C259.503 7.68979 276.765 3.85611 294.028 0C243.159 97.5236 192.11 194.958 140.882 292.302C127.072 293.423 113.262 294.544 99.4517 295.665C105.908 254.256 112.208 212.803 118.351 171.328C118.037 171.373 117.88 171.395 117.566 171.44C94.7885 214.216 71.9882 256.992 49.143 299.723C32.7545 301.045 16.3885 302.368 0 303.691C48.5376 213.633 96.8511 123.463 145.008 33.1805L145.03 33.2029Z" fill="rgb(255,106,19)" fill-rule="nonzero" transform="matrix(0.819662,0.572847,-0.572847,0.819662,613.739,990.372)" />
		<path id="Vector" d="M154.85 25.6252C193.187 17.0835 231.523 8.54173 269.86 0C256.723 25.6924 243.563 51.3849 230.402 77.0549C209.979 80.9334 189.555 84.8119 169.153 88.6905C161.62 103.285 154.087 117.88 146.555 132.475C161.217 129.987 175.879 127.476 190.541 124.987C178.323 148.707 166.104 172.426 153.886 196.146C139.403 198.141 124.942 200.136 110.46 202.132C102.994 216.547 95.5283 230.985 88.0627 245.401C108.756 242.98 129.449 240.558 150.119 238.137C137.183 263.291 124.225 288.423 111.267 313.578C74.1852 316.582 37.0814 319.586 0 322.59C51.8108 223.699 103.442 124.718 154.895 25.6476L154.85 25.6252Z" fill="rgb(255,106,19)" fill-rule="nonzero" transform="matrix(0.819662,0.572847,-0.572847,0.819662,772.644,1061.52)" />
	</g>
	<g id="Group 2136140273">
		<path id="Vector" d="M0 210.911L84.2923 103.857L1353.16 0L976.071 507.262L0 210.911Z" fill="rgb(255,106,19)" fill-rule="nonzero" transform="matrix(0.80155,-0.597928,0.597928,0.80155,-210,313.089)" />
		<g id="Group">
			<path id="Vector" d="M54.0786 14.7016C68.3074 13.5309 75.782 12.923 91.4517 11.6622C79.5193 24.7654 67.5644 37.846 55.677 50.9716C56.0148 50.9941 56.1949 51.0167 56.5326 51.0392C77.7407 37.4858 98.5661 23.3695 119.482 9.38832C132.202 8.35268 138.776 7.81235 152.284 6.70916C139.091 23.0543 125.786 39.2869 112.57 55.6095C112.953 55.632 113.155 55.6545 113.538 55.677C137.155 38.8366 160.39 21.4783 183.669 4.14257C200.554 2.76922 217.44 1.37335 234.325 0C183.106 36.8329 130.536 71.5269 78.8214 107.594C67.3618 104.127 61.7333 102.416 50.6114 99.0164C62.5213 83.7069 74.161 68.2173 85.8458 52.7502C85.5531 52.7277 85.418 52.7052 85.1253 52.6827C66.0785 66.2136 46.2437 78.5738 27.0168 91.857C16.0975 88.5474 10.7167 86.9039 0 83.6394C18.0112 60.6301 36.0224 37.6433 54.1461 14.7241L54.0786 14.7016Z" fill="rgb(20,20,25)" fill-rule="nonzero" transform="matrix(0.80155,-0.597928,0.597928,0.80155,-107.259,378.264)" />
			<path id="Vector" d="M127.879 4.05252C144.337 2.70168 160.795 1.35084 177.252 0C130.649 46.2887 82.964 91.0915 35.1668 136.119C20.7579 131.752 13.756 129.613 0 125.448C42.5289 84.8777 85.5981 44.8929 127.879 4.03L127.879 4.05252Z" fill="rgb(20,20,25)" fill-rule="nonzero" transform="matrix(0.80155,-0.597928,0.597928,0.80155,-13.8118,302.037)" />
			<path id="Vector" d="M150.979 12.6303C165.545 11.4371 180.134 10.2439 194.701 9.05062C187.024 35.4145 177.95 61.283 168.54 87.0615C168.832 87.0615 168.967 87.084 169.26 87.1065C196.029 59.5494 222.821 32.0374 249.657 4.54782C268.164 3.03939 286.693 1.50844 305.199 0C241.71 64.9303 177.95 129.14 112.457 192.089C98.0934 187.721 91.0915 185.605 77.403 181.44C91.4292 153.072 104.96 124.502 117.59 95.5042C117.32 95.4817 117.163 95.4592 116.893 95.4367C90.2585 119.977 63.602 144.517 37.148 169.237C21.8836 164.6 14.4765 162.348 0 157.958C51.0842 110.116 101.606 62.2962 150.956 12.6529L150.979 12.6303Z" fill="rgb(20,20,25)" fill-rule="nonzero" transform="matrix(0.80155,-0.597928,0.597928,0.80155,22.8665,255.771)" />
			<path id="Vector" d="M201.185 4.93056C221.312 3.28704 241.44 1.64352 261.567 0C209.56 54.056 157.508 108.067 105.23 161.875C124.435 165.095 143.639 168.314 162.844 171.556C141.815 193.778 120.787 216.022 99.7594 238.265C66.5062 228.179 33.2531 218.07 0 207.984C67.9697 141.185 134.408 72.9453 201.185 4.95307L201.185 4.93056Z" fill="rgb(20,20,25)" fill-rule="nonzero" transform="matrix(0.80155,-0.597928,0.597928,0.80155,129.7,166.334)" />
			<path id="Vector" d="M235.023 5.58347C257.74 3.71481 280.434 1.86866 303.151 0C220.052 91.069 136.862 182.07 53.6733 273.072C35.7747 267.646 17.8986 262.198 0 256.772C78.4387 173.132 156.765 89.403 235.001 5.58347L235.023 5.58347Z" fill="rgb(20,20,25)" fill-rule="nonzero" transform="matrix(0.80155,-0.597928,0.597928,0.80155,216.276,85.4551)" />
			<path id="Vector" d="M258.213 17.9436C278.565 16.2776 298.918 14.6116 319.271 12.9455C302.002 61.5532 284.329 110.003 266.385 158.363C266.836 158.386 267.061 158.408 267.488 158.431C310.648 107.752 353.897 57.1404 397.191 6.57408C424.006 4.39022 450.82 2.18386 477.634 0C378.1 119.797 278.295 239.391 178.603 359.053C159.782 353.334 140.982 347.638 122.161 341.92C144.585 286.648 166.761 231.309 188.577 175.789C188.149 175.744 187.947 175.744 187.541 175.699C144.315 224.532 101.2 273.477 58.1761 322.49C38.7916 316.591 19.3845 310.715 0 304.817C86.0709 209.2 172.187 113.628 258.235 17.9661L258.213 17.9436Z" fill="rgb(20,20,25)" fill-rule="nonzero" transform="matrix(0.80155,-0.597928,0.597928,0.80155,273.699,15.8808)" />
			<path id="Vector" d="M307.563 16.7054C375.6 11.1444 443.66 5.56095 511.697 0C485.919 34.2888 460.118 68.5775 434.294 102.821C397.461 103.114 360.651 103.429 323.818 103.744C308.892 122.746 293.965 141.748 279.038 160.727C304.929 161.718 330.798 162.731 356.689 163.722C331.361 196.862 305.987 229.958 280.547 263.031C255.533 259.901 230.52 256.794 205.53 253.665C189.883 273.41 174.258 293.154 158.633 312.899C194.273 319.541 229.935 326.182 265.575 332.846C236.622 371.03 207.669 409.214 178.716 447.398C119.144 429.319 59.572 411.218 0 393.139C102.596 267.714 205.237 142.333 307.586 16.7054L307.563 16.7054Z" fill="rgb(20,20,25)" fill-rule="nonzero" transform="matrix(0.80155,-0.597928,0.597928,0.80155,439.027,-133.596)" />
		</g>
	</g>
</svg>
